<svg width="761" height="434" viewBox="0 0 761 434" fill="none" xmlns="http://www.w3.org/2000/svg">
<rect x="235" y="22" width="330" height="148" rx="13" fill="#616161" fill-opacity="0.44"/>
<path d="M467 413C467 409.686 469.686 407 473 407H624C627.314 407 630 409.686 630 413V428C630 431.314 627.314 434 624 434H473C469.686 434 467 431.314 467 428V413Z" fill="#616161" fill-opacity="0.44"/>
<rect x="226" y="207" width="124" height="143" rx="13" fill="#616161" fill-opacity="0.44"/>
<path d="M362.442 3.27273V12H360.861V3.27273H362.442ZM365.628 8.16477V12H364.086V5.45455H365.56V6.56676H365.637C365.787 6.20028 366.027 5.90909 366.357 5.69318C366.689 5.47727 367.1 5.36932 367.588 5.36932C368.04 5.36932 368.434 5.46591 368.769 5.65909C369.107 5.85227 369.368 6.1321 369.553 6.49858C369.74 6.86506 369.833 7.30966 369.83 7.83239V12H368.287V8.07102C368.287 7.63352 368.174 7.29119 367.946 7.04403C367.722 6.79687 367.411 6.6733 367.013 6.6733C366.743 6.6733 366.503 6.73295 366.293 6.85227C366.086 6.96875 365.922 7.13778 365.803 7.35938C365.686 7.58097 365.628 7.84943 365.628 8.16477ZM374.667 5.45455V6.64773H370.904V5.45455H374.667ZM371.833 3.88636H373.375V10.0312C373.375 10.2386 373.407 10.3977 373.469 10.5085C373.534 10.6165 373.62 10.6903 373.725 10.7301C373.83 10.7699 373.946 10.7898 374.074 10.7898C374.171 10.7898 374.259 10.7827 374.338 10.7685C374.421 10.7543 374.483 10.7415 374.526 10.7301L374.786 11.9361C374.703 11.9645 374.586 11.9957 374.432 12.0298C374.282 12.0639 374.097 12.0838 373.878 12.0895C373.492 12.1009 373.144 12.0426 372.834 11.9148C372.525 11.7841 372.279 11.5824 372.097 11.3097C371.918 11.0369 371.83 10.696 371.833 10.2869V3.88636ZM378.784 12.1278C378.128 12.1278 377.561 11.9915 377.084 11.7188C376.609 11.4432 376.244 11.054 375.989 10.5511C375.733 10.0455 375.605 9.45028 375.605 8.76562C375.605 8.09233 375.733 7.50142 375.989 6.9929C376.247 6.48153 376.608 6.08381 377.071 5.79972C377.534 5.51278 378.078 5.36932 378.703 5.36932C379.107 5.36932 379.487 5.43466 379.845 5.56534C380.206 5.69318 380.524 5.89205 380.8 6.16193C381.078 6.43182 381.297 6.77557 381.456 7.19318C381.615 7.60795 381.695 8.10227 381.695 8.67614V9.14915H376.33V8.10938H380.216C380.213 7.81392 380.149 7.55114 380.024 7.32102C379.899 7.08807 379.724 6.90483 379.5 6.77131C379.278 6.63778 379.02 6.57102 378.724 6.57102C378.409 6.57102 378.132 6.64773 377.893 6.80114C377.655 6.9517 377.469 7.15057 377.335 7.39773C377.205 7.64205 377.138 7.91051 377.135 8.20312V9.1108C377.135 9.49148 377.205 9.81818 377.344 10.0909C377.483 10.3608 377.678 10.5682 377.928 10.7131C378.178 10.8551 378.47 10.9261 378.805 10.9261C379.03 10.9261 379.233 10.8949 379.415 10.8324C379.597 10.767 379.754 10.6719 379.888 10.5469C380.021 10.4219 380.122 10.267 380.19 10.0824L381.631 10.2443C381.54 10.625 381.366 10.9574 381.111 11.2415C380.858 11.5227 380.534 11.7415 380.139 11.8977C379.744 12.0511 379.293 12.1278 378.784 12.1278ZM378.068 4.59375L379.023 2.64631H380.531L379.223 4.59375H378.068ZM385.846 14.5909C385.292 14.5909 384.816 14.5156 384.419 14.3651C384.021 14.2173 383.701 14.0185 383.46 13.7685C383.218 13.5185 383.051 13.2415 382.957 12.9375L384.346 12.6009C384.409 12.7287 384.5 12.8551 384.619 12.9801C384.738 13.108 384.899 13.2131 385.1 13.2955C385.305 13.3807 385.562 13.4233 385.872 13.4233C386.309 13.4233 386.672 13.3168 386.958 13.1037C387.245 12.8935 387.389 12.5469 387.389 12.0639V10.8239H387.312C387.233 10.983 387.116 11.1463 386.963 11.3139C386.812 11.4815 386.612 11.6222 386.362 11.7358C386.115 11.8494 385.804 11.9062 385.429 11.9062C384.926 11.9062 384.47 11.7884 384.061 11.5526C383.654 11.3139 383.331 10.9588 383.089 10.4872C382.85 10.0128 382.731 9.41903 382.731 8.70597C382.731 7.98722 382.85 7.38068 383.089 6.88636C383.331 6.3892 383.656 6.01278 384.065 5.7571C384.474 5.49858 384.93 5.36932 385.433 5.36932C385.816 5.36932 386.132 5.43466 386.379 5.56534C386.629 5.69318 386.828 5.84801 386.975 6.02983C387.123 6.20881 387.235 6.37784 387.312 6.53693H387.397V5.45455H388.919V12.1065C388.919 12.6662 388.785 13.1293 388.518 13.4957C388.251 13.8622 387.886 14.1364 387.423 14.3182C386.96 14.5 386.434 14.5909 385.846 14.5909ZM385.859 10.696C386.186 10.696 386.464 10.6165 386.694 10.4574C386.924 10.2983 387.099 10.0696 387.218 9.77131C387.338 9.47301 387.397 9.11506 387.397 8.69744C387.397 8.28551 387.338 7.92472 387.218 7.61506C387.102 7.3054 386.929 7.06534 386.699 6.89489C386.471 6.72159 386.191 6.63494 385.859 6.63494C385.515 6.63494 385.228 6.72443 384.998 6.90341C384.768 7.08239 384.595 7.32812 384.478 7.64062C384.362 7.95028 384.304 8.30256 384.304 8.69744C384.304 9.09801 384.362 9.44886 384.478 9.75C384.598 10.0483 384.772 10.2812 385.002 10.4489C385.235 10.6136 385.521 10.696 385.859 10.696ZM390.5 12V5.45455H391.995V6.54545H392.064C392.183 6.16761 392.387 5.87642 392.677 5.67188C392.97 5.46449 393.304 5.3608 393.679 5.3608C393.764 5.3608 393.859 5.36506 393.964 5.37358C394.072 5.37926 394.162 5.3892 394.233 5.40341V6.82244C394.167 6.79972 394.064 6.77983 393.922 6.76278C393.782 6.7429 393.647 6.73295 393.517 6.73295C393.235 6.73295 392.983 6.79403 392.758 6.91619C392.537 7.03551 392.362 7.2017 392.234 7.41477C392.106 7.62784 392.042 7.87358 392.042 8.15199V12H390.5ZM397.024 12.1321C396.609 12.1321 396.235 12.0582 395.903 11.9105C395.574 11.7599 395.312 11.5384 395.119 11.2457C394.929 10.9531 394.833 10.5923 394.833 10.1634C394.833 9.79403 394.902 9.48864 395.038 9.24716C395.174 9.00568 395.36 8.8125 395.596 8.66761C395.832 8.52273 396.098 8.41335 396.393 8.33949C396.691 8.26278 397 8.20739 397.318 8.1733C397.701 8.13352 398.012 8.09801 398.251 8.06676C398.49 8.03267 398.663 7.98153 398.771 7.91335C398.882 7.84233 398.937 7.73295 398.937 7.58523V7.55966C398.937 7.23864 398.842 6.99006 398.652 6.81392C398.461 6.63778 398.187 6.54972 397.829 6.54972C397.451 6.54972 397.152 6.6321 396.93 6.79688C396.711 6.96165 396.564 7.15625 396.487 7.38068L395.047 7.17614C395.16 6.77841 395.348 6.44602 395.609 6.17898C395.87 5.90909 396.19 5.70739 396.568 5.57386C396.946 5.4375 397.363 5.36932 397.821 5.36932C398.136 5.36932 398.45 5.40625 398.762 5.48011C399.075 5.55398 399.36 5.67614 399.619 5.84659C399.877 6.0142 400.085 6.2429 400.241 6.53267C400.4 6.82244 400.48 7.18466 400.48 7.61932V12H398.997V11.1009H398.946C398.852 11.2827 398.72 11.4531 398.549 11.6122C398.382 11.7685 398.17 11.8949 397.914 11.9915C397.662 12.0852 397.365 12.1321 397.024 12.1321ZM397.424 10.9986C397.734 10.9986 398.002 10.9375 398.23 10.8153C398.457 10.6903 398.632 10.5256 398.754 10.321C398.879 10.1165 398.941 9.89347 398.941 9.65199V8.88068C398.893 8.92045 398.811 8.95739 398.694 8.99148C398.581 9.02557 398.453 9.0554 398.311 9.08097C398.169 9.10653 398.028 9.12926 397.889 9.14915C397.75 9.16903 397.629 9.18608 397.527 9.20028C397.297 9.23153 397.091 9.28267 396.909 9.35369C396.727 9.42472 396.583 9.52415 396.478 9.65199C396.373 9.77699 396.321 9.93892 396.321 10.1378C396.321 10.4219 396.424 10.6364 396.632 10.7812C396.839 10.9261 397.103 10.9986 397.424 10.9986ZM405.299 5.45455V6.64773H401.537V5.45455H405.299ZM402.466 3.88636H404.008V10.0312C404.008 10.2386 404.039 10.3977 404.102 10.5085C404.167 10.6165 404.252 10.6903 404.358 10.7301C404.463 10.7699 404.579 10.7898 404.707 10.7898C404.804 10.7898 404.892 10.7827 404.971 10.7685C405.054 10.7543 405.116 10.7415 405.159 10.7301L405.419 11.9361C405.336 11.9645 405.218 11.9957 405.065 12.0298C404.914 12.0639 404.73 12.0838 404.511 12.0895C404.125 12.1009 403.777 12.0426 403.467 11.9148C403.157 11.7841 402.912 11.5824 402.73 11.3097C402.551 11.0369 402.463 10.696 402.466 10.2869V3.88636ZM409.417 12.1278C408.761 12.1278 408.194 11.9915 407.717 11.7188C407.242 11.4432 406.877 11.054 406.621 10.5511C406.366 10.0455 406.238 9.45028 406.238 8.76562C406.238 8.09233 406.366 7.50142 406.621 6.9929C406.88 6.48153 407.241 6.08381 407.704 5.79972C408.167 5.51278 408.711 5.36932 409.336 5.36932C409.739 5.36932 410.12 5.43466 410.478 5.56534C410.839 5.69318 411.157 5.89205 411.433 6.16193C411.711 6.43182 411.93 6.77557 412.089 7.19318C412.248 7.60795 412.327 8.10227 412.327 8.67614V9.14915H406.962V8.10938H410.849C410.846 7.81392 410.782 7.55114 410.657 7.32102C410.532 7.08807 410.357 6.90483 410.133 6.77131C409.911 6.63778 409.653 6.57102 409.357 6.57102C409.042 6.57102 408.765 6.64773 408.526 6.80114C408.288 6.9517 408.102 7.15057 407.968 7.39773C407.837 7.64205 407.771 7.91051 407.768 8.20312V9.1108C407.768 9.49148 407.837 9.81818 407.977 10.0909C408.116 10.3608 408.31 10.5682 408.56 10.7131C408.81 10.8551 409.103 10.9261 409.438 10.9261C409.663 10.9261 409.866 10.8949 410.048 10.8324C410.229 10.767 410.387 10.6719 410.521 10.5469C410.654 10.4219 410.755 10.267 410.823 10.0824L412.263 10.2443C412.173 10.625 411.999 10.9574 411.744 11.2415C411.491 11.5227 411.167 11.7415 410.772 11.8977C410.377 12.0511 409.925 12.1278 409.417 12.1278ZM417.804 9.24716V5.45455H419.347V12H417.851V10.8366H417.783C417.635 11.2031 417.392 11.5028 417.054 11.7358C416.719 11.9687 416.306 12.0852 415.814 12.0852C415.385 12.0852 415.006 11.9901 414.676 11.7997C414.35 11.6065 414.094 11.3267 413.909 10.9602C413.725 10.5909 413.632 10.1449 413.632 9.62216V5.45455H415.175V9.38352C415.175 9.7983 415.289 10.1278 415.516 10.3722C415.743 10.6165 416.042 10.7386 416.411 10.7386C416.638 10.7386 416.858 10.6832 417.071 10.5724C417.284 10.4616 417.459 10.2969 417.596 10.0781C417.735 9.85653 417.804 9.57955 417.804 9.24716ZM420.933 12V5.45455H422.429V6.54545H422.497C422.616 6.16761 422.821 5.87642 423.111 5.67188C423.403 5.46449 423.737 5.3608 424.112 5.3608C424.197 5.3608 424.293 5.36506 424.398 5.37358C424.506 5.37926 424.595 5.3892 424.666 5.40341V6.82244C424.601 6.79972 424.497 6.77983 424.355 6.76278C424.216 6.7429 424.081 6.73295 423.95 6.73295C423.669 6.73295 423.416 6.79403 423.192 6.91619C422.97 7.03551 422.795 7.2017 422.668 7.41477C422.54 7.62784 422.476 7.87358 422.476 8.15199V12H420.933ZM430.864 7.18466L429.458 7.33807C429.418 7.19602 429.349 7.0625 429.249 6.9375C429.153 6.8125 429.022 6.71165 428.857 6.63494C428.692 6.55824 428.491 6.51989 428.252 6.51989C427.931 6.51989 427.661 6.58949 427.442 6.72869C427.227 6.8679 427.12 7.0483 427.123 7.26989C427.12 7.46023 427.19 7.61506 427.332 7.73438C427.477 7.85369 427.715 7.9517 428.048 8.02841L429.164 8.26705C429.783 8.40057 430.244 8.61222 430.545 8.90199C430.849 9.19176 431.002 9.57102 431.005 10.0398C431.002 10.4517 430.881 10.8153 430.643 11.1307C430.407 11.4432 430.079 11.6875 429.658 11.8636C429.238 12.0398 428.755 12.1278 428.21 12.1278C427.408 12.1278 426.763 11.9602 426.275 11.625C425.786 11.2869 425.495 10.8168 425.401 10.2145L426.906 10.0696C426.974 10.3651 427.119 10.5881 427.34 10.7386C427.562 10.8892 427.85 10.9645 428.205 10.9645C428.572 10.9645 428.866 10.8892 429.087 10.7386C429.312 10.5881 429.424 10.402 429.424 10.1804C429.424 9.9929 429.352 9.83807 429.207 9.71591C429.065 9.59375 428.843 9.5 428.542 9.43466L427.425 9.20028C426.798 9.0696 426.333 8.84943 426.032 8.53977C425.731 8.22727 425.582 7.83239 425.585 7.35511C425.582 6.9517 425.691 6.60227 425.913 6.30682C426.137 6.00852 426.448 5.77841 426.846 5.61648C427.246 5.4517 427.708 5.36932 428.231 5.36932C428.998 5.36932 429.602 5.53267 430.042 5.85938C430.485 6.18608 430.759 6.62784 430.864 7.18466Z" fill="white"/>
<path d="M270.861 369V360.273H276.452V361.598H272.442V363.967H276.068V365.293H272.442V369H270.861ZM280.241 369.128C279.585 369.128 279.018 368.991 278.541 368.719C278.066 368.443 277.701 368.054 277.446 367.551C277.19 367.045 277.062 366.45 277.062 365.766C277.062 365.092 277.19 364.501 277.446 363.993C277.704 363.482 278.065 363.084 278.528 362.8C278.991 362.513 279.535 362.369 280.16 362.369C280.564 362.369 280.944 362.435 281.302 362.565C281.663 362.693 281.981 362.892 282.257 363.162C282.535 363.432 282.754 363.776 282.913 364.193C283.072 364.608 283.152 365.102 283.152 365.676V366.149H277.787V365.109H281.673C281.67 364.814 281.606 364.551 281.481 364.321C281.356 364.088 281.181 363.905 280.957 363.771C280.735 363.638 280.477 363.571 280.181 363.571C279.866 363.571 279.589 363.648 279.35 363.801C279.112 363.952 278.926 364.151 278.792 364.398C278.662 364.642 278.595 364.911 278.592 365.203V366.111C278.592 366.491 278.662 366.818 278.801 367.091C278.94 367.361 279.135 367.568 279.385 367.713C279.635 367.855 279.927 367.926 280.262 367.926C280.487 367.926 280.69 367.895 280.872 367.832C281.054 367.767 281.211 367.672 281.345 367.547C281.478 367.422 281.579 367.267 281.647 367.082L283.088 367.244C282.997 367.625 282.824 367.957 282.568 368.241C282.315 368.523 281.991 368.741 281.596 368.898C281.201 369.051 280.75 369.128 280.241 369.128ZM287.354 369.128C286.698 369.128 286.131 368.991 285.654 368.719C285.18 368.443 284.815 368.054 284.559 367.551C284.303 367.045 284.175 366.45 284.175 365.766C284.175 365.092 284.303 364.501 284.559 363.993C284.817 363.482 285.178 363.084 285.641 362.8C286.104 362.513 286.648 362.369 287.273 362.369C287.677 362.369 288.058 362.435 288.415 362.565C288.776 362.693 289.094 362.892 289.37 363.162C289.648 363.432 289.867 363.776 290.026 364.193C290.185 364.608 290.265 365.102 290.265 365.676V366.149H284.9V365.109H288.786C288.783 364.814 288.719 364.551 288.594 364.321C288.469 364.088 288.295 363.905 288.07 363.771C287.849 363.638 287.59 363.571 287.295 363.571C286.979 363.571 286.702 363.648 286.464 363.801C286.225 363.952 286.039 364.151 285.906 364.398C285.775 364.642 285.708 364.911 285.705 365.203V366.111C285.705 366.491 285.775 366.818 285.914 367.091C286.053 367.361 286.248 367.568 286.498 367.713C286.748 367.855 287.04 367.926 287.376 367.926C287.6 367.926 287.803 367.895 287.985 367.832C288.167 367.767 288.325 367.672 288.458 367.547C288.592 367.422 288.692 367.267 288.761 367.082L290.201 367.244C290.11 367.625 289.937 367.957 289.681 368.241C289.428 368.523 289.104 368.741 288.71 368.898C288.315 369.051 287.863 369.128 287.354 369.128ZM293.999 369.115C293.485 369.115 293.025 368.983 292.618 368.719C292.212 368.455 291.891 368.071 291.655 367.568C291.419 367.065 291.301 366.455 291.301 365.736C291.301 365.009 291.421 364.395 291.659 363.895C291.901 363.392 292.226 363.013 292.635 362.757C293.044 362.499 293.5 362.369 294.003 362.369C294.387 362.369 294.702 362.435 294.949 362.565C295.196 362.693 295.392 362.848 295.537 363.03C295.682 363.209 295.794 363.378 295.874 363.537H295.938V360.273H297.485V369H295.968V367.969H295.874C295.794 368.128 295.679 368.297 295.529 368.476C295.378 368.652 295.179 368.803 294.932 368.928C294.685 369.053 294.374 369.115 293.999 369.115ZM294.429 367.849C294.756 367.849 295.034 367.761 295.265 367.585C295.495 367.406 295.669 367.158 295.789 366.839C295.908 366.521 295.968 366.151 295.968 365.727C295.968 365.304 295.908 364.936 295.789 364.624C295.672 364.311 295.499 364.068 295.269 363.895C295.042 363.722 294.762 363.635 294.429 363.635C294.086 363.635 293.799 363.724 293.569 363.903C293.338 364.082 293.165 364.33 293.049 364.645C292.932 364.96 292.874 365.321 292.874 365.727C292.874 366.136 292.932 366.501 293.049 366.822C293.168 367.141 293.343 367.392 293.573 367.577C293.806 367.759 294.091 367.849 294.429 367.849ZM299.197 369V360.273H300.739V363.537H300.803C300.883 363.378 300.995 363.209 301.14 363.03C301.285 362.848 301.481 362.693 301.728 362.565C301.975 362.435 302.29 362.369 302.674 362.369C303.18 362.369 303.636 362.499 304.042 362.757C304.451 363.013 304.775 363.392 305.013 363.895C305.255 364.395 305.376 365.009 305.376 365.736C305.376 366.455 305.258 367.065 305.022 367.568C304.786 368.071 304.465 368.455 304.059 368.719C303.653 368.983 303.192 369.115 302.678 369.115C302.303 369.115 301.992 369.053 301.745 368.928C301.498 368.803 301.299 368.652 301.148 368.476C301.001 368.297 300.886 368.128 300.803 367.969H300.714V369H299.197ZM300.71 365.727C300.71 366.151 300.769 366.521 300.888 366.839C301.011 367.158 301.185 367.406 301.413 367.585C301.643 367.761 301.921 367.849 302.248 367.849C302.589 367.849 302.874 367.759 303.104 367.577C303.335 367.392 303.508 367.141 303.624 366.822C303.744 366.501 303.803 366.136 303.803 365.727C303.803 365.321 303.745 364.96 303.629 364.645C303.512 364.33 303.339 364.082 303.109 363.903C302.879 363.724 302.592 363.635 302.248 363.635C301.918 363.635 301.638 363.722 301.408 363.895C301.178 364.068 301.004 364.311 300.884 364.624C300.768 364.936 300.71 365.304 300.71 365.727ZM308.571 369.132C308.156 369.132 307.782 369.058 307.45 368.911C307.12 368.76 306.859 368.538 306.666 368.246C306.475 367.953 306.38 367.592 306.38 367.163C306.38 366.794 306.449 366.489 306.585 366.247C306.721 366.006 306.907 365.812 307.143 365.668C307.379 365.523 307.645 365.413 307.94 365.339C308.238 365.263 308.547 365.207 308.865 365.173C309.248 365.134 309.559 365.098 309.798 365.067C310.037 365.033 310.21 364.982 310.318 364.913C310.429 364.842 310.484 364.733 310.484 364.585V364.56C310.484 364.239 310.389 363.99 310.199 363.814C310.008 363.638 309.734 363.55 309.376 363.55C308.998 363.55 308.699 363.632 308.477 363.797C308.258 363.962 308.11 364.156 308.034 364.381L306.593 364.176C306.707 363.778 306.895 363.446 307.156 363.179C307.417 362.909 307.737 362.707 308.115 362.574C308.493 362.438 308.91 362.369 309.368 362.369C309.683 362.369 309.997 362.406 310.309 362.48C310.622 362.554 310.907 362.676 311.166 362.847C311.424 363.014 311.632 363.243 311.788 363.533C311.947 363.822 312.027 364.185 312.027 364.619V369H310.544V368.101H310.493C310.399 368.283 310.267 368.453 310.096 368.612C309.929 368.768 309.717 368.895 309.461 368.991C309.208 369.085 308.912 369.132 308.571 369.132ZM308.971 367.999C309.281 367.999 309.549 367.937 309.777 367.815C310.004 367.69 310.179 367.526 310.301 367.321C310.426 367.116 310.488 366.893 310.488 366.652V365.881C310.44 365.92 310.358 365.957 310.241 365.991C310.127 366.026 310 366.055 309.858 366.081C309.716 366.107 309.575 366.129 309.436 366.149C309.297 366.169 309.176 366.186 309.074 366.2C308.843 366.232 308.637 366.283 308.456 366.354C308.274 366.425 308.13 366.524 308.025 366.652C307.92 366.777 307.868 366.939 307.868 367.138C307.868 367.422 307.971 367.636 308.179 367.781C308.386 367.926 308.65 367.999 308.971 367.999ZM316.433 369.128C315.779 369.128 315.218 368.984 314.75 368.697C314.284 368.411 313.924 368.014 313.672 367.509C313.422 367 313.297 366.415 313.297 365.753C313.297 365.088 313.424 364.501 313.68 363.993C313.936 363.482 314.297 363.084 314.762 362.8C315.231 362.513 315.785 362.369 316.424 362.369C316.956 362.369 317.426 362.467 317.835 362.663C318.247 362.857 318.575 363.131 318.819 363.486C319.064 363.838 319.203 364.25 319.237 364.722H317.762C317.703 364.406 317.561 364.143 317.336 363.933C317.115 363.72 316.818 363.614 316.446 363.614C316.13 363.614 315.853 363.699 315.615 363.869C315.376 364.037 315.19 364.278 315.056 364.594C314.926 364.909 314.86 365.287 314.86 365.727C314.86 366.173 314.926 366.557 315.056 366.878C315.187 367.196 315.37 367.442 315.606 367.615C315.845 367.786 316.125 367.871 316.446 367.871C316.673 367.871 316.876 367.828 317.055 367.743C317.237 367.655 317.389 367.528 317.511 367.364C317.633 367.199 317.717 366.999 317.762 366.763H319.237C319.2 367.226 319.064 367.636 318.828 367.994C318.592 368.349 318.271 368.628 317.865 368.83C317.458 369.028 316.981 369.128 316.433 369.128ZM321.91 366.946L321.906 365.084H322.153L324.505 362.455H326.308L323.414 365.676H323.094L321.91 366.946ZM320.504 369V360.273H322.046V369H320.504ZM324.612 369L322.481 366.021L323.521 364.935L326.457 369H324.612Z" fill="white"/>
<path d="M188 176H172L180 186L172 196H188" stroke="white"/>
<g clip-path="url(#clip0_3_104)">
<path d="M280.5 56.5L340.5 96.5L280.5 136.5V56.5Z" stroke="white" stroke-miterlimit="10"/>
<path d="M280.5 56.5H260.5V136.5H280.5V56.5Z" stroke="white"/>
<path d="M480.5 56.5L540.5 96.5L480.5 136.5V56.5Z" stroke="white" stroke-miterlimit="10"/>
<path d="M480.5 56.5H460.5V136.5H480.5V56.5Z" stroke="white"/>
<path d="M280.5 236.5H210.5C203.833 236.5 200.5 233.167 200.5 226.5V206.5" stroke="white" stroke-miterlimit="10"/>
<path d="M320.5 236.5H390.5C397.167 236.5 400.5 233.167 400.5 226.5V96.5" stroke="white" stroke-miterlimit="10"/>
<path d="M300.5 256.5C311.546 256.5 320.5 247.546 320.5 236.5C320.5 225.454 311.546 216.5 300.5 216.5C289.454 216.5 280.5 225.454 280.5 236.5C280.5 247.546 289.454 256.5 300.5 256.5Z" stroke="white"/>
<path d="M320.5 316.5H590.5C597.167 316.5 600.5 313.167 600.5 306.5V236.5" stroke="white" stroke-miterlimit="10"/>
<path d="M300.5 336.5C311.546 336.5 320.5 327.546 320.5 316.5C320.5 305.454 311.546 296.5 300.5 296.5C289.454 296.5 280.5 305.454 280.5 316.5C280.5 327.546 289.454 336.5 300.5 336.5Z" stroke="white"/>
<path d="M180.5 146.5V106.5C180.5 99.8333 183.833 96.5 190.5 96.5H260.5" stroke="white" stroke-miterlimit="10"/>
<path d="M180.5 206.5V306.5C180.5 313.167 183.833 316.5 190.5 316.5H280.5" stroke="white" stroke-miterlimit="10"/>
<path d="M140.5 206.5L180.5 146.5L220.5 206.5H140.5Z" stroke="white" stroke-miterlimit="10"/>
<path d="M80.5 266.5H150.5C157.167 266.5 160.5 263.167 160.5 256.5V236.5C160.5 229.833 160.5 223.167 160.5 216.5V206.5" stroke="white" stroke-miterlimit="10"/>
<path d="M80.5 226.5H0.5V306.5H80.5V226.5Z" stroke="white"/>
<path d="M340.5 96.5H460.5" stroke="white" stroke-miterlimit="10"/>
<path d="M640.5 176.5L600.5 236.5L560.5 176.5H640.5Z" stroke="white" stroke-miterlimit="10"/>
<path d="M540.5 96.5H590.5C597.167 96.5 600.5 99.8333 600.5 106.5V176.5" stroke="white" stroke-miterlimit="10"/>
<path d="M680.5 266.5H600.5" stroke="white" stroke-miterlimit="10"/>
<path d="M760.5 226.5H680.5V306.5H760.5V226.5Z" stroke="white"/>
</g>
<path d="M21.8608 271V262.273H27.5369V263.598H23.4418V265.967H27.2429V267.293H23.4418V269.675H27.571V271H21.8608ZM30.6243 267.165V271H29.0817V264.455H30.5561V265.567H30.6328C30.7834 265.2 31.0234 264.909 31.353 264.693C31.6854 264.477 32.0959 264.369 32.5845 264.369C33.0362 264.369 33.4297 264.466 33.7649 264.659C34.103 264.852 34.3643 265.132 34.549 265.499C34.7365 265.865 34.8288 266.31 34.826 266.832V271H33.2834V267.071C33.2834 266.634 33.1697 266.291 32.9425 266.044C32.718 265.797 32.407 265.673 32.0092 265.673C31.7393 265.673 31.4993 265.733 31.2891 265.852C31.0817 265.969 30.9183 266.138 30.799 266.359C30.6825 266.581 30.6243 266.849 30.6243 267.165ZM39.6626 264.455V265.648H35.8999V264.455H39.6626ZM36.8288 262.886H38.3714V269.031C38.3714 269.239 38.4027 269.398 38.4652 269.509C38.5305 269.616 38.6158 269.69 38.7209 269.73C38.826 269.77 38.9425 269.79 39.0703 269.79C39.1669 269.79 39.255 269.783 39.3345 269.768C39.4169 269.754 39.4794 269.741 39.522 269.73L39.782 270.936C39.6996 270.964 39.5817 270.996 39.4283 271.03C39.2777 271.064 39.093 271.084 38.8743 271.089C38.4879 271.101 38.1399 271.043 37.8303 270.915C37.5206 270.784 37.2749 270.582 37.093 270.31C36.9141 270.037 36.826 269.696 36.8288 269.287V262.886ZM40.9528 271V264.455H42.4485V265.545H42.5167C42.636 265.168 42.8406 264.876 43.1303 264.672C43.4229 264.464 43.7567 264.361 44.1317 264.361C44.217 264.361 44.3121 264.365 44.4173 264.374C44.5252 264.379 44.6147 264.389 44.6857 264.403V265.822C44.6204 265.8 44.5167 265.78 44.3746 265.763C44.2354 265.743 44.1005 265.733 43.9698 265.733C43.6886 265.733 43.4357 265.794 43.2113 265.916C42.9897 266.036 42.815 266.202 42.6871 266.415C42.5593 266.628 42.4954 266.874 42.4954 267.152V271H40.9528ZM48.3388 271.128C47.6825 271.128 47.1158 270.991 46.6385 270.719C46.1641 270.443 45.799 270.054 45.5433 269.551C45.2876 269.045 45.1598 268.45 45.1598 267.766C45.1598 267.092 45.2876 266.501 45.5433 265.993C45.8018 265.482 46.1626 265.084 46.6257 264.8C47.0888 264.513 47.6328 264.369 48.2578 264.369C48.6612 264.369 49.0419 264.435 49.3999 264.565C49.7607 264.693 50.0788 264.892 50.3544 265.162C50.6328 265.432 50.8516 265.776 51.0107 266.193C51.1697 266.608 51.2493 267.102 51.2493 267.676V268.149H45.8842V267.109H49.7706C49.7678 266.814 49.7038 266.551 49.5788 266.321C49.4538 266.088 49.2791 265.905 49.0547 265.771C48.8331 265.638 48.5746 265.571 48.2791 265.571C47.9638 265.571 47.6868 265.648 47.4482 265.801C47.2095 265.952 47.0234 266.151 46.8899 266.398C46.7592 266.642 46.6925 266.911 46.6896 267.203V268.111C46.6896 268.491 46.7592 268.818 46.8984 269.091C47.0376 269.361 47.2322 269.568 47.4822 269.713C47.7322 269.855 48.0249 269.926 48.3601 269.926C48.5845 269.926 48.7876 269.895 48.9695 269.832C49.1513 269.767 49.3089 269.672 49.4425 269.547C49.576 269.422 49.6768 269.267 49.745 269.082L51.1854 269.244C51.0945 269.625 50.9212 269.957 50.6655 270.241C50.4126 270.523 50.0888 270.741 49.6939 270.898C49.299 271.051 48.8473 271.128 48.3388 271.128ZM47.6229 263.594L48.5774 261.646H50.0859L48.7777 263.594H47.6229ZM55.4521 271.128C54.7958 271.128 54.229 270.991 53.7518 270.719C53.2773 270.443 52.9123 270.054 52.6566 269.551C52.4009 269.045 52.2731 268.45 52.2731 267.766C52.2731 267.092 52.4009 266.501 52.6566 265.993C52.9151 265.482 53.2759 265.084 53.739 264.8C54.2021 264.513 54.7461 264.369 55.3711 264.369C55.7745 264.369 56.1552 264.435 56.5131 264.565C56.8739 264.693 57.1921 264.892 57.4677 265.162C57.7461 265.432 57.9648 265.776 58.1239 266.193C58.283 266.608 58.3626 267.102 58.3626 267.676V268.149H52.9975V267.109H56.8839C56.881 266.814 56.8171 266.551 56.6921 266.321C56.5671 266.088 56.3924 265.905 56.168 265.771C55.9464 265.638 55.6879 265.571 55.3924 265.571C55.0771 265.571 54.8001 265.648 54.5614 265.801C54.3228 265.952 54.1367 266.151 54.0032 266.398C53.8725 266.642 53.8058 266.911 53.8029 267.203V268.111C53.8029 268.491 53.8725 268.818 54.0117 269.091C54.1509 269.361 54.3455 269.568 54.5955 269.713C54.8455 269.855 55.1381 269.926 55.4734 269.926C55.6978 269.926 55.9009 269.895 56.0827 269.832C56.2646 269.767 56.4222 269.672 56.5558 269.547C56.6893 269.422 56.7901 269.267 56.8583 269.082L58.2987 269.244C58.2077 269.625 58.0344 269.957 57.7788 270.241C57.5259 270.523 57.2021 270.741 56.8072 270.898C56.4123 271.051 55.9606 271.128 55.4521 271.128Z" fill="white"/>
<path d="M708.604 264.672C708.564 264.3 708.396 264.01 708.101 263.803C707.808 263.595 707.428 263.491 706.959 263.491C706.629 263.491 706.347 263.541 706.111 263.641C705.875 263.74 705.695 263.875 705.57 264.045C705.445 264.216 705.381 264.411 705.378 264.629C705.378 264.811 705.419 264.969 705.501 265.102C705.587 265.236 705.702 265.349 705.847 265.443C705.991 265.534 706.152 265.611 706.328 265.673C706.504 265.736 706.682 265.788 706.861 265.831L707.679 266.036C708.009 266.112 708.325 266.216 708.629 266.347C708.936 266.477 709.21 266.642 709.452 266.841C709.696 267.04 709.889 267.28 710.031 267.561C710.173 267.842 710.244 268.172 710.244 268.55C710.244 269.061 710.114 269.511 709.852 269.901C709.591 270.287 709.213 270.589 708.719 270.808C708.227 271.024 707.632 271.132 706.933 271.132C706.254 271.132 705.665 271.027 705.165 270.817C704.668 270.607 704.278 270.3 703.997 269.896C703.719 269.493 703.568 269.001 703.545 268.422H705.101C705.124 268.726 705.217 268.979 705.382 269.18C705.547 269.382 705.761 269.533 706.026 269.632C706.293 269.732 706.591 269.781 706.92 269.781C707.264 269.781 707.565 269.73 707.824 269.628C708.085 269.523 708.29 269.378 708.438 269.193C708.585 269.006 708.661 268.787 708.663 268.537C708.661 268.31 708.594 268.122 708.463 267.974C708.332 267.824 708.149 267.699 707.913 267.599C707.68 267.497 707.408 267.406 707.095 267.327L706.102 267.071C705.384 266.886 704.815 266.607 704.398 266.232C703.983 265.854 703.776 265.352 703.776 264.727C703.776 264.213 703.915 263.763 704.193 263.376C704.474 262.99 704.857 262.69 705.339 262.477C705.822 262.261 706.369 262.153 706.98 262.153C707.599 262.153 708.142 262.261 708.608 262.477C709.077 262.69 709.445 262.987 709.712 263.368C709.979 263.746 710.116 264.18 710.125 264.672H708.604ZM714.441 271.128C713.801 271.128 713.248 270.987 712.779 270.706C712.31 270.425 711.946 270.031 711.688 269.526C711.432 269.02 711.304 268.429 711.304 267.753C711.304 267.077 711.432 266.484 711.688 265.976C711.946 265.467 712.31 265.072 712.779 264.791C713.248 264.51 713.801 264.369 714.441 264.369C715.08 264.369 715.634 264.51 716.103 264.791C716.571 265.072 716.934 265.467 717.189 265.976C717.448 266.484 717.577 267.077 717.577 267.753C717.577 268.429 717.448 269.02 717.189 269.526C716.934 270.031 716.571 270.425 716.103 270.706C715.634 270.987 715.08 271.128 714.441 271.128ZM714.449 269.892C714.796 269.892 715.086 269.797 715.319 269.607C715.551 269.413 715.725 269.155 715.838 268.831C715.955 268.507 716.013 268.146 716.013 267.749C716.013 267.348 715.955 266.986 715.838 266.662C715.725 266.335 715.551 266.075 715.319 265.882C715.086 265.689 714.796 265.592 714.449 265.592C714.094 265.592 713.799 265.689 713.563 265.882C713.33 266.075 713.155 266.335 713.039 266.662C712.925 266.986 712.868 267.348 712.868 267.749C712.868 268.146 712.925 268.507 713.039 268.831C713.155 269.155 713.33 269.413 713.563 269.607C713.799 269.797 714.094 269.892 714.449 269.892ZM718.886 271V264.455H720.382V265.545H720.45C720.57 265.168 720.774 264.876 721.064 264.672C721.357 264.464 721.69 264.361 722.065 264.361C722.151 264.361 722.246 264.365 722.351 264.374C722.459 264.379 722.548 264.389 722.619 264.403V265.822C722.554 265.8 722.45 265.78 722.308 265.763C722.169 265.743 722.034 265.733 721.903 265.733C721.622 265.733 721.369 265.794 721.145 265.916C720.923 266.036 720.749 266.202 720.621 266.415C720.493 266.628 720.429 266.874 720.429 267.152V271H718.886ZM727.264 264.455V265.648H723.501V264.455H727.264ZM724.43 262.886H725.973V269.031C725.973 269.239 726.004 269.398 726.067 269.509C726.132 269.616 726.217 269.69 726.322 269.73C726.428 269.77 726.544 269.79 726.672 269.79C726.768 269.79 726.857 269.783 726.936 269.768C727.018 269.754 727.081 269.741 727.124 269.73L727.384 270.936C727.301 270.964 727.183 270.996 727.03 271.03C726.879 271.064 726.695 271.084 726.476 271.089C726.089 271.101 725.741 271.043 725.432 270.915C725.122 270.784 724.876 270.582 724.695 270.31C724.516 270.037 724.428 269.696 724.43 269.287V262.886ZM728.554 271V264.455H730.097V271H728.554ZM729.33 263.526C729.086 263.526 728.875 263.445 728.699 263.283C728.523 263.118 728.435 262.92 728.435 262.69C728.435 262.457 728.523 262.26 728.699 262.098C728.875 261.933 729.086 261.851 729.33 261.851C729.577 261.851 729.787 261.933 729.961 262.098C730.137 262.26 730.225 262.457 730.225 262.69C730.225 262.92 730.137 263.118 729.961 263.283C729.787 263.445 729.577 263.526 729.33 263.526ZM734.581 271.128C733.925 271.128 733.358 270.991 732.881 270.719C732.406 270.443 732.041 270.054 731.786 269.551C731.53 269.045 731.402 268.45 731.402 267.766C731.402 267.092 731.53 266.501 731.786 265.993C732.044 265.482 732.405 265.084 732.868 264.8C733.331 264.513 733.875 264.369 734.5 264.369C734.903 264.369 735.284 264.435 735.642 264.565C736.003 264.693 736.321 264.892 736.597 265.162C736.875 265.432 737.094 265.776 737.253 266.193C737.412 266.608 737.491 267.102 737.491 267.676V268.149H732.126V267.109H736.013C736.01 266.814 735.946 266.551 735.821 266.321C735.696 266.088 735.521 265.905 735.297 265.771C735.075 265.638 734.817 265.571 734.521 265.571C734.206 265.571 733.929 265.648 733.69 265.801C733.452 265.952 733.266 266.151 733.132 266.398C733.001 266.642 732.935 266.911 732.932 267.203V268.111C732.932 268.491 733.001 268.818 733.141 269.091C733.28 269.361 733.474 269.568 733.724 269.713C733.974 269.855 734.267 269.926 734.602 269.926C734.827 269.926 735.03 269.895 735.212 269.832C735.393 269.767 735.551 269.672 735.685 269.547C735.818 269.422 735.919 269.267 735.987 269.082L737.428 269.244C737.337 269.625 737.163 269.957 736.908 270.241C736.655 270.523 736.331 270.741 735.936 270.898C735.541 271.051 735.089 271.128 734.581 271.128Z" fill="white"/>
<path d="M612.442 124.273V133H610.861V124.273H612.442ZM615.628 129.165V133H614.086V126.455H615.56V127.567H615.637C615.787 127.2 616.027 126.909 616.357 126.693C616.689 126.477 617.1 126.369 617.588 126.369C618.04 126.369 618.434 126.466 618.769 126.659C619.107 126.852 619.368 127.132 619.553 127.499C619.74 127.865 619.833 128.31 619.83 128.832V133H618.287V129.071C618.287 128.634 618.174 128.291 617.946 128.044C617.722 127.797 617.411 127.673 617.013 127.673C616.743 127.673 616.503 127.733 616.293 127.852C616.086 127.969 615.922 128.138 615.803 128.359C615.686 128.581 615.628 128.849 615.628 129.165ZM627.01 126.455L624.679 133H622.975L620.644 126.455H622.289L623.793 131.317H623.861L625.37 126.455H627.01ZM630.753 133.128C630.097 133.128 629.53 132.991 629.053 132.719C628.578 132.443 628.213 132.054 627.957 131.551C627.702 131.045 627.574 130.45 627.574 129.766C627.574 129.092 627.702 128.501 627.957 127.993C628.216 127.482 628.577 127.084 629.04 126.8C629.503 126.513 630.047 126.369 630.672 126.369C631.075 126.369 631.456 126.435 631.814 126.565C632.175 126.693 632.493 126.892 632.768 127.162C633.047 127.432 633.266 127.776 633.425 128.193C633.584 128.608 633.663 129.102 633.663 129.676V130.149H628.298V129.109H632.185C632.182 128.814 632.118 128.551 631.993 128.321C631.868 128.088 631.693 127.905 631.469 127.771C631.247 127.638 630.989 127.571 630.693 127.571C630.378 127.571 630.101 127.648 629.862 127.801C629.624 127.952 629.438 128.151 629.304 128.398C629.173 128.642 629.107 128.911 629.104 129.203V130.111C629.104 130.491 629.173 130.818 629.312 131.091C629.452 131.361 629.646 131.568 629.896 131.713C630.146 131.855 630.439 131.926 630.774 131.926C630.999 131.926 631.202 131.895 631.384 131.832C631.565 131.767 631.723 131.672 631.857 131.547C631.99 131.422 632.091 131.267 632.159 131.082L633.599 131.244C633.509 131.625 633.335 131.957 633.08 132.241C632.827 132.523 632.503 132.741 632.108 132.898C631.713 133.051 631.261 133.128 630.753 133.128ZM634.968 133V126.455H636.464V127.545H636.532C636.652 127.168 636.856 126.876 637.146 126.672C637.439 126.464 637.772 126.361 638.147 126.361C638.233 126.361 638.328 126.365 638.433 126.374C638.541 126.379 638.63 126.389 638.701 126.403V127.822C638.636 127.8 638.532 127.78 638.39 127.763C638.251 127.743 638.116 127.733 637.985 127.733C637.704 127.733 637.451 127.794 637.227 127.916C637.005 128.036 636.831 128.202 636.703 128.415C636.575 128.628 636.511 128.874 636.511 129.152V133H634.968ZM644.9 128.185L643.493 128.338C643.453 128.196 643.384 128.062 643.284 127.938C643.188 127.812 643.057 127.712 642.892 127.635C642.728 127.558 642.526 127.52 642.287 127.52C641.966 127.52 641.696 127.589 641.478 127.729C641.262 127.868 641.155 128.048 641.158 128.27C641.155 128.46 641.225 128.615 641.367 128.734C641.512 128.854 641.75 128.952 642.083 129.028L643.199 129.267C643.819 129.401 644.279 129.612 644.58 129.902C644.884 130.192 645.037 130.571 645.04 131.04C645.037 131.452 644.917 131.815 644.678 132.131C644.442 132.443 644.114 132.687 643.694 132.864C643.273 133.04 642.79 133.128 642.245 133.128C641.444 133.128 640.799 132.96 640.31 132.625C639.821 132.287 639.53 131.817 639.436 131.214L640.941 131.07C641.009 131.365 641.154 131.588 641.375 131.739C641.597 131.889 641.885 131.964 642.24 131.964C642.607 131.964 642.901 131.889 643.123 131.739C643.347 131.588 643.459 131.402 643.459 131.18C643.459 130.993 643.387 130.838 643.242 130.716C643.1 130.594 642.878 130.5 642.577 130.435L641.461 130.2C640.833 130.07 640.368 129.849 640.067 129.54C639.766 129.227 639.617 128.832 639.62 128.355C639.617 127.952 639.726 127.602 639.948 127.307C640.172 127.009 640.483 126.778 640.881 126.616C641.282 126.452 641.743 126.369 642.266 126.369C643.033 126.369 643.637 126.533 644.077 126.859C644.52 127.186 644.794 127.628 644.9 128.185ZM649.21 133.128C648.554 133.128 647.987 132.991 647.51 132.719C647.035 132.443 646.67 132.054 646.414 131.551C646.159 131.045 646.031 130.45 646.031 129.766C646.031 129.092 646.159 128.501 646.414 127.993C646.673 127.482 647.034 127.084 647.497 126.8C647.96 126.513 648.504 126.369 649.129 126.369C649.532 126.369 649.913 126.435 650.271 126.565C650.632 126.693 650.95 126.892 651.225 127.162C651.504 127.432 651.723 127.776 651.882 128.193C652.041 128.608 652.12 129.102 652.12 129.676V130.149H646.755V129.109H650.642C650.639 128.814 650.575 128.551 650.45 128.321C650.325 128.088 650.15 127.905 649.926 127.771C649.704 127.638 649.446 127.571 649.15 127.571C648.835 127.571 648.558 127.648 648.319 127.801C648.081 127.952 647.895 128.151 647.761 128.398C647.63 128.642 647.564 128.911 647.561 129.203V130.111C647.561 130.491 647.63 130.818 647.77 131.091C647.909 131.361 648.103 131.568 648.353 131.713C648.603 131.855 648.896 131.926 649.231 131.926C649.456 131.926 649.659 131.895 649.841 131.832C650.022 131.767 650.18 131.672 650.314 131.547C650.447 131.422 650.548 131.267 650.616 131.082L652.056 131.244C651.966 131.625 651.792 131.957 651.537 132.241C651.284 132.523 650.96 132.741 650.565 132.898C650.17 133.051 649.718 133.128 649.21 133.128ZM657.597 130.247V126.455H659.14V133H657.644V131.837H657.576C657.428 132.203 657.185 132.503 656.847 132.736C656.512 132.969 656.099 133.085 655.607 133.085C655.178 133.085 654.799 132.99 654.469 132.8C654.143 132.607 653.887 132.327 653.702 131.96C653.518 131.591 653.425 131.145 653.425 130.622V126.455H654.968V130.384C654.968 130.798 655.082 131.128 655.309 131.372C655.536 131.616 655.835 131.739 656.204 131.739C656.431 131.739 656.651 131.683 656.864 131.572C657.077 131.462 657.252 131.297 657.388 131.078C657.528 130.857 657.597 130.58 657.597 130.247ZM660.726 133V126.455H662.222V127.545H662.29C662.409 127.168 662.614 126.876 662.904 126.672C663.196 126.464 663.53 126.361 663.905 126.361C663.99 126.361 664.086 126.365 664.191 126.374C664.299 126.379 664.388 126.389 664.459 126.403V127.822C664.394 127.8 664.29 127.78 664.148 127.763C664.009 127.743 663.874 127.733 663.743 127.733C663.462 127.733 663.209 127.794 662.985 127.916C662.763 128.036 662.588 128.202 662.461 128.415C662.333 128.628 662.269 128.874 662.269 129.152V133H660.726Z" fill="white"/>
<rect x="537" y="142" width="128" height="148" rx="13" fill="#616161" fill-opacity="0.44"/>
<path d="M216.919 90.0909C216.569 90.0909 216.244 90.0625 215.946 90.0057C215.652 89.9536 215.418 89.892 215.243 89.821L215.839 87.8182C216.214 87.9271 216.547 87.9792 216.841 87.9744C217.134 87.9697 217.393 87.8774 217.615 87.6974C217.842 87.5223 218.034 87.2287 218.19 86.8168L218.411 86.2273L214.455 75.0909H217.182L219.696 83.3295H219.81L222.331 75.0909H225.065L220.697 87.321C220.494 87.8987 220.224 88.3935 219.888 88.8054C219.552 89.2221 219.14 89.5393 218.652 89.7571C218.169 89.9796 217.591 90.0909 216.919 90.0909ZM217.622 73.4858C217.253 73.4858 216.931 73.3532 216.656 73.0881C216.386 72.8229 216.251 72.5104 216.251 72.1506C216.251 71.7718 216.386 71.4545 216.656 71.1989C216.931 70.9384 217.253 70.8082 217.622 70.8082C218.006 70.8082 218.328 70.9384 218.588 71.1989C218.853 71.4545 218.986 71.7718 218.986 72.1506C218.986 72.5104 218.853 72.8229 218.588 73.0881C218.328 73.3532 218.006 73.4858 217.622 73.4858ZM221.884 73.4858C221.514 73.4858 221.192 73.3532 220.918 73.0881C220.648 72.8229 220.513 72.5104 220.513 72.1506C220.513 71.7718 220.648 71.4545 220.918 71.1989C221.192 70.9384 221.514 70.8082 221.884 70.8082C222.267 70.8082 222.589 70.9384 222.849 71.1989C223.115 71.4545 223.247 71.7718 223.247 72.1506C223.247 72.5104 223.115 72.8229 222.849 73.0881C222.589 73.3532 222.267 73.4858 221.884 73.4858Z" fill="white"/>
<path d="M102.151 262.213C101.057 262.213 100.112 261.986 99.3168 261.531C98.526 261.072 97.9176 260.423 97.4915 259.585C97.0653 258.742 96.8523 257.75 96.8523 256.609C96.8523 255.487 97.0653 254.502 97.4915 253.655C97.9223 252.803 98.5237 252.14 99.2955 251.666C100.067 251.188 100.974 250.949 102.016 250.949C102.688 250.949 103.322 251.058 103.919 251.276C104.52 251.489 105.051 251.82 105.51 252.27C105.974 252.72 106.339 253.293 106.604 253.989C106.869 254.68 107.001 255.504 107.001 256.46V257.249H98.0597V255.516H104.537C104.532 255.023 104.426 254.585 104.217 254.202C104.009 253.813 103.718 253.508 103.344 253.286C102.974 253.063 102.544 252.952 102.051 252.952C101.526 252.952 101.064 253.08 100.666 253.335C100.268 253.586 99.9583 253.918 99.7358 254.33C99.518 254.737 99.4067 255.184 99.402 255.672V257.185C99.402 257.819 99.518 258.364 99.75 258.818C99.982 259.268 100.306 259.614 100.723 259.855C101.14 260.092 101.627 260.21 102.186 260.21C102.56 260.21 102.899 260.158 103.202 260.054C103.505 259.945 103.768 259.786 103.99 259.578C104.213 259.37 104.381 259.112 104.494 258.804L106.895 259.074C106.743 259.708 106.455 260.262 106.028 260.736C105.607 261.205 105.067 261.569 104.409 261.83C103.751 262.085 102.998 262.213 102.151 262.213Z" fill="white"/>
<path d="M617.933 248.884V251H611.385V248.884H617.933ZM622.235 260.091C621.885 260.091 621.561 260.063 621.262 260.006C620.969 259.954 620.734 259.892 620.559 259.821L621.156 257.818C621.53 257.927 621.864 257.979 622.157 257.974C622.451 257.97 622.709 257.877 622.931 257.697C623.159 257.522 623.35 257.229 623.507 256.817L623.727 256.227L619.771 245.091H622.498L625.012 253.33H625.126L627.647 245.091H630.382L626.014 257.321C625.81 257.899 625.54 258.393 625.204 258.805C624.868 259.222 624.456 259.539 623.968 259.757C623.485 259.98 622.908 260.091 622.235 260.091Z" fill="white"/>
<path d="M556.919 90.0909C556.569 90.0909 556.244 90.0625 555.946 90.0057C555.652 89.9536 555.418 89.892 555.243 89.821L555.839 87.8182C556.214 87.9271 556.547 87.9792 556.841 87.9744C557.134 87.9697 557.393 87.8774 557.615 87.6974C557.842 87.5223 558.034 87.2287 558.19 86.8168L558.411 86.2273L554.455 75.0909H557.182L559.696 83.3295H559.81L562.331 75.0909H565.065L560.697 87.321C560.494 87.8987 560.224 88.3935 559.888 88.8054C559.552 89.2221 559.14 89.5393 558.652 89.7571C558.169 89.9796 557.591 90.0909 556.919 90.0909Z" fill="white"/>
<path d="M401.933 78.8835V81H395.385V78.8835H401.933ZM406.235 90.0909C405.885 90.0909 405.561 90.0625 405.262 90.0057C404.969 89.9536 404.734 89.892 404.559 89.821L405.156 87.8182C405.53 87.9271 405.864 87.9792 406.157 87.9744C406.451 87.9697 406.709 87.8774 406.931 87.6974C407.159 87.5223 407.35 87.2287 407.507 86.8168L407.727 86.2273L403.771 75.0909H406.498L409.012 83.3295H409.126L411.647 75.0909H414.382L410.014 87.321C409.81 87.8987 409.54 88.3935 409.204 88.8054C408.868 89.2221 408.456 89.5393 407.968 89.7571C407.485 89.9796 406.908 90.0909 406.235 90.0909ZM409.069 73.5426C408.657 73.5426 408.305 73.4077 408.011 73.1378C407.722 72.8632 407.578 72.5341 407.578 72.1506C407.578 71.7623 407.725 71.4332 408.018 71.1634C408.312 70.8887 408.662 70.7514 409.069 70.7514C409.476 70.7514 409.824 70.8887 410.113 71.1634C410.407 71.4332 410.554 71.7623 410.554 72.1506C410.554 72.5341 410.407 72.8632 410.113 73.1378C409.824 73.4077 409.476 73.5426 409.069 73.5426Z" fill="white"/>
<path d="M367.933 324.884V327H361.385V324.884H367.933ZM372.235 336.091C371.885 336.091 371.561 336.063 371.262 336.006C370.969 335.954 370.734 335.892 370.559 335.821L371.156 333.818C371.53 333.927 371.864 333.979 372.157 333.974C372.451 333.97 372.709 333.877 372.931 333.697C373.159 333.522 373.35 333.229 373.507 332.817L373.727 332.227L369.771 321.091H372.498L375.012 329.33H375.126L377.647 321.091H380.382L376.014 333.321C375.81 333.899 375.54 334.393 375.204 334.805C374.868 335.222 374.456 335.539 373.968 335.757C373.485 335.98 372.908 336.091 372.235 336.091Z" fill="white"/>
<path d="M242.933 331.884V334H236.385V331.884H242.933ZM249.593 330.591H250.978C251.982 330.591 252.82 330.79 253.493 331.188C254.17 331.585 254.679 332.108 255.02 332.757C255.36 333.401 255.529 334.095 255.524 334.838C255.529 335.676 255.332 336.422 254.934 337.075C254.541 337.724 254.006 338.235 253.329 338.609C252.657 338.979 251.899 339.163 251.056 339.163C250.555 339.163 250.06 339.085 249.572 338.929C249.089 338.768 248.646 338.479 248.244 338.062L248.137 338.105V334.639C248.142 335.061 248.242 335.446 248.436 335.797C248.63 336.147 248.907 336.429 249.267 336.642C249.631 336.85 250.067 336.955 250.574 336.955C251.075 336.955 251.509 336.85 251.873 336.642C252.243 336.434 252.529 336.157 252.733 335.811C252.936 335.465 253.036 335.084 253.031 334.668C253.036 334.232 252.934 333.846 252.725 333.51C252.517 333.174 252.235 332.909 251.88 332.714C251.53 332.52 251.13 332.423 250.68 332.423H249.593V330.591ZM250.325 324.256C250.974 324.256 251.575 324.353 252.129 324.547C252.688 324.741 253.173 325.013 253.585 325.364C254.002 325.709 254.324 326.119 254.551 326.592C254.783 327.061 254.899 327.575 254.899 328.134C254.904 328.787 254.74 329.426 254.409 330.051C254.082 330.671 253.597 331.185 252.953 331.592C252.314 331.995 251.525 332.196 250.588 332.196H249.593V330.442H250.289C250.787 330.442 251.189 330.342 251.497 330.143C251.809 329.94 252.039 329.687 252.186 329.384C252.333 329.076 252.404 328.766 252.399 328.453C252.404 327.899 252.212 327.442 251.824 327.082C251.44 326.718 250.94 326.536 250.325 326.536C249.918 326.536 249.548 326.621 249.217 326.791C248.89 326.962 248.63 327.208 248.436 327.53C248.242 327.847 248.142 328.226 248.137 328.666V343.091H245.637V328.538C245.637 327.681 245.843 326.931 246.255 326.287C246.672 325.643 247.233 325.143 247.939 324.788C248.649 324.433 249.444 324.256 250.325 324.256ZM259.292 334.192C258.861 334.192 258.491 334.04 258.184 333.737C257.876 333.434 257.724 333.065 257.729 332.629C257.724 332.203 257.876 331.839 258.184 331.536C258.491 331.232 258.861 331.081 259.292 331.081C259.708 331.081 260.07 331.232 260.378 331.536C260.691 331.839 260.849 332.203 260.854 332.629C260.849 332.918 260.774 333.181 260.627 333.418C260.485 333.654 260.295 333.844 260.059 333.986C259.827 334.123 259.571 334.192 259.292 334.192ZM265.107 343.091C264.756 343.091 264.432 343.063 264.134 343.006C263.84 342.954 263.606 342.892 263.43 342.821L264.027 340.818C264.401 340.927 264.735 340.979 265.028 340.974C265.322 340.97 265.58 340.877 265.803 340.697C266.03 340.522 266.222 340.229 266.378 339.817L266.598 339.227L262.642 328.091H265.369L267.884 336.33H267.997L270.518 328.091H273.253L268.885 340.321C268.681 340.899 268.411 341.393 268.075 341.805C267.739 342.222 267.327 342.539 266.839 342.757C266.357 342.98 265.779 343.091 265.107 343.091Z" fill="white"/>
<path d="M242.933 249.884V252H236.385V249.884H242.933ZM249.835 257.227C248.921 257.218 248.114 256.972 247.413 256.489C246.717 256.006 246.172 255.338 245.779 254.486C245.386 253.634 245.19 252.653 245.19 251.545C245.19 250.442 245.396 249.472 245.808 248.634C246.22 247.791 246.781 247.133 247.491 246.659C248.201 246.186 249.004 245.949 249.899 245.949C250.514 245.949 251.064 246.062 251.547 246.29C252.029 246.512 252.444 246.827 252.789 247.234C253.135 247.637 253.414 248.108 253.627 248.648H254.451L255.041 251.517L256.404 257H254.331L253.052 251.517C252.981 251.162 252.877 250.786 252.74 250.388C252.602 249.985 252.425 249.609 252.207 249.259C251.989 248.903 251.717 248.615 251.39 248.392C251.068 248.17 250.682 248.058 250.233 248.058C249.717 248.058 249.269 248.207 248.89 248.506C248.516 248.799 248.225 249.209 248.017 249.734C247.813 250.26 247.711 250.861 247.711 251.538C247.711 252.215 247.811 252.824 248.01 253.364C248.213 253.899 248.497 254.32 248.862 254.628C249.226 254.931 249.648 255.082 250.126 255.082C250.557 255.082 250.938 254.969 251.27 254.741C251.601 254.509 251.885 254.214 252.122 253.854C252.359 253.489 252.553 253.106 252.704 252.703C252.86 252.296 252.976 251.92 253.052 251.574L254.21 246.091H256.262L255.041 251.574L254.451 254.429H253.677C253.469 254.969 253.19 255.452 252.839 255.878C252.493 256.299 252.072 256.631 251.575 256.872C251.078 257.114 250.498 257.232 249.835 257.227ZM259.702 252.192C259.271 252.192 258.902 252.04 258.594 251.737C258.286 251.434 258.134 251.065 258.139 250.629C258.134 250.203 258.286 249.839 258.594 249.536C258.902 249.232 259.271 249.081 259.702 249.081C260.118 249.081 260.481 249.232 260.788 249.536C261.101 249.839 261.259 250.203 261.264 250.629C261.259 250.918 261.184 251.181 261.037 251.418C260.895 251.654 260.705 251.844 260.469 251.986C260.237 252.123 259.981 252.192 259.702 252.192ZM265.517 261.091C265.166 261.091 264.842 261.063 264.544 261.006C264.25 260.954 264.016 260.892 263.841 260.821L264.437 258.818C264.811 258.927 265.145 258.979 265.439 258.974C265.732 258.97 265.99 258.877 266.213 258.697C266.44 258.522 266.632 258.229 266.788 257.817L267.008 257.227L263.052 246.091H265.779L268.294 254.33H268.407L270.929 246.091H273.663L269.295 258.321C269.092 258.899 268.822 259.393 268.485 259.805C268.149 260.222 267.737 260.539 267.25 260.757C266.767 260.98 266.189 261.091 265.517 261.091ZM268.35 244.543C267.939 244.543 267.586 244.408 267.292 244.138C267.003 243.863 266.859 243.534 266.859 243.151C266.859 242.762 267.006 242.433 267.299 242.163C267.593 241.889 267.943 241.751 268.35 241.751C268.758 241.751 269.106 241.889 269.395 242.163C269.688 242.433 269.835 242.762 269.835 243.151C269.835 243.534 269.688 243.863 269.395 244.138C269.106 244.408 268.758 244.543 268.35 244.543Z" fill="white"/>
<path d="M140.307 426H135.598V411.455H140.456C141.881 411.455 143.105 411.746 144.128 412.328C145.151 412.906 145.934 413.737 146.479 414.821C147.028 415.901 147.303 417.196 147.303 418.706C147.303 420.221 147.026 421.523 146.472 422.612C145.922 423.701 145.127 424.539 144.085 425.126C143.044 425.709 141.784 426 140.307 426ZM137.793 424.082H140.186C141.294 424.082 142.215 423.874 142.949 423.457C143.683 423.036 144.232 422.428 144.597 421.632C144.961 420.832 145.143 419.857 145.143 418.706C145.143 417.565 144.961 416.597 144.597 415.801C144.237 415.006 143.699 414.402 142.984 413.99C142.269 413.578 141.382 413.372 140.321 413.372H137.793V424.082ZM149.861 426V415.091H151.985V426H149.861ZM150.934 413.408C150.564 413.408 150.247 413.285 149.982 413.038C149.721 412.787 149.591 412.489 149.591 412.143C149.591 411.793 149.721 411.495 149.982 411.249C150.247 410.998 150.564 410.872 150.934 410.872C151.303 410.872 151.618 410.998 151.878 411.249C152.143 411.495 152.276 411.793 152.276 412.143C152.276 412.489 152.143 412.787 151.878 413.038C151.618 413.285 151.303 413.408 150.934 413.408ZM158.016 426.241C157.325 426.241 156.7 426.114 156.141 425.858C155.583 425.598 155.14 425.221 154.813 424.729C154.491 424.236 154.33 423.633 154.33 422.918C154.33 422.302 154.449 421.795 154.685 421.398C154.922 421 155.242 420.685 155.644 420.453C156.047 420.221 156.496 420.046 156.994 419.928C157.491 419.809 157.997 419.719 158.513 419.658C159.167 419.582 159.697 419.52 160.104 419.473C160.512 419.421 160.808 419.338 160.992 419.224C161.177 419.111 161.269 418.926 161.269 418.67V418.621C161.269 418 161.094 417.52 160.744 417.179C160.398 416.838 159.882 416.668 159.195 416.668C158.48 416.668 157.917 416.826 157.505 417.143C157.098 417.456 156.816 417.804 156.66 418.188L154.664 417.733C154.901 417.07 155.246 416.535 155.701 416.128C156.16 415.716 156.688 415.418 157.285 415.233C157.881 415.044 158.509 414.949 159.167 414.949C159.603 414.949 160.064 415.001 160.552 415.105C161.044 415.205 161.504 415.389 161.93 415.659C162.361 415.929 162.713 416.315 162.988 416.817C163.263 417.314 163.4 417.96 163.4 418.756V426H161.326V424.509H161.241C161.103 424.783 160.897 425.053 160.623 425.318C160.348 425.583 159.996 425.804 159.565 425.979C159.134 426.154 158.618 426.241 158.016 426.241ZM158.478 424.537C159.065 424.537 159.567 424.421 159.984 424.189C160.405 423.957 160.725 423.654 160.942 423.28C161.165 422.901 161.276 422.496 161.276 422.065V420.659C161.201 420.735 161.054 420.806 160.836 420.872C160.623 420.934 160.379 420.988 160.104 421.036C159.83 421.078 159.562 421.118 159.302 421.156C159.041 421.189 158.824 421.218 158.648 421.241C158.237 421.294 157.86 421.381 157.519 421.504C157.183 421.627 156.913 421.805 156.71 422.037C156.511 422.264 156.411 422.567 156.411 422.946C156.411 423.472 156.605 423.869 156.994 424.139C157.382 424.404 157.877 424.537 158.478 424.537ZM170.802 430.318C169.936 430.318 169.19 430.205 168.565 429.977C167.945 429.75 167.438 429.449 167.045 429.075C166.652 428.701 166.359 428.292 166.164 427.847L167.99 427.094C168.118 427.302 168.288 427.522 168.501 427.754C168.719 427.991 169.012 428.192 169.382 428.358C169.756 428.524 170.236 428.607 170.824 428.607C171.628 428.607 172.294 428.41 172.819 428.017C173.345 427.629 173.608 427.009 173.608 426.156V424.011H173.473C173.345 424.243 173.16 424.501 172.919 424.786C172.682 425.07 172.355 425.316 171.939 425.524C171.522 425.732 170.98 425.837 170.312 425.837C169.45 425.837 168.674 425.635 167.983 425.233C167.296 424.826 166.752 424.227 166.349 423.436C165.951 422.641 165.752 421.663 165.752 420.503C165.752 419.343 165.949 418.348 166.342 417.52C166.74 416.691 167.284 416.057 167.975 415.616C168.667 415.171 169.45 414.949 170.326 414.949C171.003 414.949 171.55 415.062 171.967 415.29C172.384 415.512 172.708 415.773 172.94 416.071C173.177 416.369 173.359 416.632 173.487 416.859H173.643V415.091H175.724V426.241C175.724 427.179 175.506 427.948 175.071 428.55C174.635 429.151 174.046 429.596 173.302 429.885C172.564 430.174 171.73 430.318 170.802 430.318ZM170.781 424.075C171.392 424.075 171.908 423.933 172.329 423.649C172.755 423.36 173.077 422.948 173.295 422.413C173.518 421.874 173.629 421.227 173.629 420.474C173.629 419.741 173.52 419.094 173.302 418.536C173.084 417.977 172.765 417.541 172.343 417.229C171.922 416.911 171.401 416.753 170.781 416.753C170.142 416.753 169.609 416.919 169.183 417.25C168.757 417.577 168.435 418.022 168.217 418.585C168.004 419.149 167.897 419.778 167.897 420.474C167.897 421.189 168.006 421.817 168.224 422.357C168.442 422.896 168.764 423.318 169.19 423.621C169.621 423.924 170.151 424.075 170.781 424.075ZM178.572 426V415.091H180.625V416.824H180.738C180.937 416.237 181.288 415.775 181.789 415.439C182.296 415.098 182.869 414.928 183.508 414.928C183.641 414.928 183.797 414.932 183.977 414.942C184.162 414.951 184.306 414.963 184.41 414.977V417.009C184.325 416.985 184.173 416.959 183.956 416.93C183.738 416.897 183.52 416.881 183.302 416.881C182.8 416.881 182.353 416.987 181.96 417.2C181.572 417.409 181.264 417.7 181.037 418.074C180.809 418.443 180.696 418.865 180.696 419.338V426H178.572ZM189.325 426.241C188.634 426.241 188.009 426.114 187.45 425.858C186.891 425.598 186.449 425.221 186.122 424.729C185.8 424.236 185.639 423.633 185.639 422.918C185.639 422.302 185.757 421.795 185.994 421.398C186.231 421 186.55 420.685 186.953 420.453C187.355 420.221 187.805 420.046 188.302 419.928C188.799 419.809 189.306 419.719 189.822 419.658C190.475 419.582 191.006 419.52 191.413 419.473C191.82 419.421 192.116 419.338 192.301 419.224C192.485 419.111 192.578 418.926 192.578 418.67V418.621C192.578 418 192.403 417.52 192.052 417.179C191.707 416.838 191.19 416.668 190.504 416.668C189.789 416.668 189.225 416.826 188.814 417.143C188.406 417.456 188.125 417.804 187.968 418.188L185.973 417.733C186.209 417.07 186.555 416.535 187.01 416.128C187.469 415.716 187.997 415.418 188.593 415.233C189.19 415.044 189.817 414.949 190.475 414.949C190.911 414.949 191.373 415.001 191.86 415.105C192.353 415.205 192.812 415.389 193.238 415.659C193.669 415.929 194.022 416.315 194.297 416.817C194.571 417.314 194.708 417.96 194.708 418.756V426H192.635V424.509H192.549C192.412 424.783 192.206 425.053 191.931 425.318C191.657 425.583 191.304 425.804 190.873 425.979C190.442 426.154 189.926 426.241 189.325 426.241ZM189.787 424.537C190.374 424.537 190.876 424.421 191.292 424.189C191.714 423.957 192.033 423.654 192.251 423.28C192.474 422.901 192.585 422.496 192.585 422.065V420.659C192.509 420.735 192.362 420.806 192.145 420.872C191.931 420.934 191.688 420.988 191.413 421.036C191.138 421.078 190.871 421.118 190.61 421.156C190.35 421.189 190.132 421.218 189.957 421.241C189.545 421.294 189.169 421.381 188.828 421.504C188.492 421.627 188.222 421.805 188.018 422.037C187.819 422.264 187.72 422.567 187.72 422.946C187.72 423.472 187.914 423.869 188.302 424.139C188.69 424.404 189.185 424.537 189.787 424.537ZM197.537 426V415.091H199.575V416.866H199.71C199.938 416.265 200.309 415.796 200.825 415.46C201.341 415.119 201.959 414.949 202.679 414.949C203.408 414.949 204.019 415.119 204.511 415.46C205.009 415.801 205.375 416.27 205.612 416.866H205.726C205.986 416.284 206.401 415.82 206.969 415.474C207.537 415.124 208.214 414.949 209 414.949C209.99 414.949 210.797 415.259 211.422 415.879C212.052 416.5 212.366 417.435 212.366 418.685V426H210.243V418.884C210.243 418.145 210.042 417.61 209.639 417.278C209.237 416.947 208.756 416.781 208.197 416.781C207.506 416.781 206.969 416.994 206.585 417.42C206.202 417.842 206.01 418.384 206.01 419.047V426H203.893V418.749C203.893 418.157 203.709 417.681 203.339 417.321C202.97 416.961 202.49 416.781 201.898 416.781C201.495 416.781 201.124 416.888 200.783 417.101C200.446 417.309 200.174 417.6 199.966 417.974C199.762 418.348 199.661 418.782 199.661 419.274V426H197.537ZM215.213 426V415.091H217.251V416.866H217.386C217.613 416.265 217.985 415.796 218.501 415.46C219.017 415.119 219.635 414.949 220.355 414.949C221.084 414.949 221.695 415.119 222.187 415.46C222.684 415.801 223.051 416.27 223.288 416.866H223.402C223.662 416.284 224.076 415.82 224.645 415.474C225.213 415.124 225.89 414.949 226.676 414.949C227.665 414.949 228.473 415.259 229.098 415.879C229.727 416.5 230.042 417.435 230.042 418.685V426H227.919V418.884C227.919 418.145 227.717 417.61 227.315 417.278C226.913 416.947 226.432 416.781 225.873 416.781C225.182 416.781 224.645 416.994 224.261 417.42C223.877 417.842 223.686 418.384 223.686 419.047V426H221.569V418.749C221.569 418.157 221.385 417.681 221.015 417.321C220.646 416.961 220.165 416.781 219.574 416.781C219.171 416.781 218.799 416.888 218.458 417.101C218.122 417.309 217.85 417.6 217.642 417.974C217.438 418.348 217.336 418.782 217.336 419.274V426H215.213ZM237.59 426.22C236.515 426.22 235.59 425.991 234.813 425.531C234.041 425.067 233.445 424.416 233.023 423.578C232.607 422.735 232.398 421.748 232.398 420.616C232.398 419.499 232.607 418.514 233.023 417.662C233.445 416.81 234.032 416.144 234.785 415.666C235.542 415.188 236.428 414.949 237.441 414.949C238.057 414.949 238.653 415.051 239.231 415.254C239.808 415.458 240.327 415.777 240.786 416.213C241.246 416.649 241.608 417.214 241.873 417.911C242.138 418.602 242.271 419.442 242.271 420.432V421.185H233.599V419.594H240.19C240.19 419.035 240.076 418.54 239.849 418.109C239.621 417.674 239.302 417.33 238.89 417.08C238.483 416.829 238.004 416.703 237.455 416.703C236.859 416.703 236.338 416.85 235.893 417.143C235.452 417.432 235.112 417.811 234.87 418.28C234.633 418.744 234.515 419.248 234.515 419.793V421.036C234.515 421.765 234.643 422.385 234.898 422.896C235.159 423.408 235.521 423.798 235.985 424.068C236.449 424.333 236.991 424.466 237.612 424.466C238.014 424.466 238.381 424.409 238.712 424.295C239.044 424.177 239.33 424.002 239.572 423.77C239.813 423.538 239.998 423.251 240.126 422.911L242.136 423.273C241.975 423.865 241.686 424.383 241.269 424.828C240.857 425.268 240.339 425.612 239.714 425.858C239.094 426.099 238.386 426.22 237.59 426.22ZM249.92 426V415.091H251.958V416.866H252.093C252.32 416.265 252.692 415.796 253.208 415.46C253.724 415.119 254.342 414.949 255.062 414.949C255.791 414.949 256.402 415.119 256.894 415.46C257.391 415.801 257.758 416.27 257.995 416.866H258.109C258.369 416.284 258.783 415.82 259.352 415.474C259.92 415.124 260.597 414.949 261.383 414.949C262.372 414.949 263.18 415.259 263.805 415.879C264.434 416.5 264.749 417.435 264.749 418.685V426H262.626V418.884C262.626 418.145 262.424 417.61 262.022 417.278C261.62 416.947 261.139 416.781 260.58 416.781C259.889 416.781 259.352 416.994 258.968 417.42C258.585 417.842 258.393 418.384 258.393 419.047V426H256.276V418.749C256.276 418.157 256.092 417.681 255.722 417.321C255.353 416.961 254.872 416.781 254.281 416.781C253.878 416.781 253.506 416.888 253.165 417.101C252.829 417.309 252.557 417.6 252.349 417.974C252.145 418.348 252.043 418.782 252.043 419.274V426H249.92ZM272.191 426.22C271.168 426.22 270.275 425.986 269.513 425.517C268.751 425.048 268.159 424.393 267.738 423.55C267.316 422.707 267.105 421.722 267.105 420.595C267.105 419.464 267.316 418.474 267.738 417.626C268.159 416.779 268.751 416.121 269.513 415.652C270.275 415.183 271.168 414.949 272.191 414.949C273.213 414.949 274.106 415.183 274.868 415.652C275.631 416.121 276.222 416.779 276.644 417.626C277.065 418.474 277.276 419.464 277.276 420.595C277.276 421.722 277.065 422.707 276.644 423.55C276.222 424.393 275.631 425.048 274.868 425.517C274.106 425.986 273.213 426.22 272.191 426.22ZM272.198 424.438C272.861 424.438 273.41 424.262 273.846 423.912C274.281 423.562 274.603 423.095 274.811 422.513C275.025 421.93 275.131 421.289 275.131 420.588C275.131 419.892 275.025 419.253 274.811 418.67C274.603 418.083 274.281 417.612 273.846 417.257C273.41 416.902 272.861 416.724 272.198 416.724C271.53 416.724 270.976 416.902 270.536 417.257C270.1 417.612 269.776 418.083 269.563 418.67C269.355 419.253 269.25 419.892 269.25 420.588C269.25 421.289 269.355 421.93 269.563 422.513C269.776 423.095 270.1 423.562 270.536 423.912C270.976 424.262 271.53 424.438 272.198 424.438ZM283.73 426.213C282.849 426.213 282.063 425.988 281.372 425.538C280.686 425.084 280.146 424.437 279.753 423.599C279.365 422.757 279.17 421.746 279.17 420.567C279.17 419.388 279.367 418.379 279.76 417.541C280.158 416.703 280.702 416.062 281.393 415.616C282.085 415.171 282.868 414.949 283.744 414.949C284.421 414.949 284.966 415.062 285.378 415.29C285.795 415.512 286.116 415.773 286.344 416.071C286.576 416.369 286.756 416.632 286.884 416.859H287.011V411.455H289.135V426H287.061V424.303H286.884C286.756 424.535 286.571 424.8 286.33 425.098C286.093 425.396 285.766 425.657 285.349 425.879C284.933 426.102 284.393 426.213 283.73 426.213ZM284.199 424.402C284.81 424.402 285.326 424.241 285.747 423.919C286.173 423.592 286.495 423.14 286.713 422.562C286.936 421.985 287.047 421.312 287.047 420.545C287.047 419.788 286.938 419.125 286.72 418.557C286.502 417.989 286.183 417.546 285.761 417.229C285.34 416.911 284.819 416.753 284.199 416.753C283.56 416.753 283.027 416.919 282.601 417.25C282.175 417.581 281.853 418.034 281.635 418.607C281.422 419.179 281.315 419.826 281.315 420.545C281.315 421.275 281.424 421.93 281.642 422.513C281.86 423.095 282.182 423.557 282.608 423.898C283.039 424.234 283.569 424.402 284.199 424.402ZM296.868 426.22C295.793 426.22 294.867 425.991 294.091 425.531C293.319 425.067 292.722 424.416 292.301 423.578C291.884 422.735 291.676 421.748 291.676 420.616C291.676 419.499 291.884 418.514 292.301 417.662C292.722 416.81 293.309 416.144 294.062 415.666C294.82 415.188 295.705 414.949 296.718 414.949C297.334 414.949 297.931 415.051 298.508 415.254C299.086 415.458 299.604 415.777 300.064 416.213C300.523 416.649 300.885 417.214 301.15 417.911C301.415 418.602 301.548 419.442 301.548 420.432V421.185H292.876V419.594H299.467C299.467 419.035 299.353 418.54 299.126 418.109C298.899 417.674 298.579 417.33 298.167 417.08C297.76 416.829 297.282 416.703 296.733 416.703C296.136 416.703 295.615 416.85 295.17 417.143C294.73 417.432 294.389 417.811 294.147 418.28C293.911 418.744 293.792 419.248 293.792 419.793V421.036C293.792 421.765 293.92 422.385 294.176 422.896C294.436 423.408 294.798 423.798 295.262 424.068C295.726 424.333 296.269 424.466 296.889 424.466C297.291 424.466 297.658 424.409 297.99 424.295C298.321 424.177 298.608 424.002 298.849 423.77C299.091 423.538 299.275 423.251 299.403 422.911L301.413 423.273C301.252 423.865 300.963 424.383 300.547 424.828C300.135 425.268 299.616 425.612 298.991 425.858C298.371 426.099 297.663 426.22 296.868 426.22ZM295.76 413.635L297.422 410.361H299.659L297.457 413.635H295.76ZM306.028 411.455V426H303.904V411.455H306.028ZM308.885 426V415.091H311.008V426H308.885ZM309.957 413.408C309.588 413.408 309.27 413.285 309.005 413.038C308.745 412.787 308.615 412.489 308.615 412.143C308.615 411.793 308.745 411.495 309.005 411.249C309.27 410.998 309.588 410.872 309.957 410.872C310.326 410.872 310.641 410.998 310.902 411.249C311.167 411.495 311.299 411.793 311.299 412.143C311.299 412.489 311.167 412.787 310.902 413.038C310.641 413.285 310.326 413.408 309.957 413.408ZM322.04 417.754L320.115 418.095C320.035 417.849 319.907 417.615 319.732 417.392C319.561 417.17 319.329 416.987 319.036 416.845C318.742 416.703 318.375 416.632 317.935 416.632C317.333 416.632 316.831 416.767 316.429 417.037C316.027 417.302 315.825 417.645 315.825 418.067C315.825 418.431 315.96 418.725 316.23 418.947C316.5 419.17 316.936 419.352 317.537 419.494L319.27 419.892C320.274 420.124 321.022 420.482 321.514 420.964C322.007 421.447 322.253 422.075 322.253 422.847C322.253 423.5 322.063 424.082 321.685 424.594C321.311 425.1 320.787 425.498 320.115 425.787C319.447 426.076 318.673 426.22 317.793 426.22C316.571 426.22 315.574 425.96 314.803 425.439C314.031 424.913 313.557 424.168 313.382 423.202L315.435 422.889C315.563 423.424 315.825 423.829 316.223 424.104C316.621 424.374 317.139 424.509 317.778 424.509C318.474 424.509 319.031 424.364 319.447 424.075C319.864 423.782 320.072 423.424 320.072 423.003C320.072 422.662 319.945 422.375 319.689 422.143C319.438 421.911 319.052 421.736 318.531 421.618L316.685 421.213C315.667 420.981 314.914 420.612 314.426 420.105C313.943 419.598 313.702 418.957 313.702 418.18C313.702 417.536 313.882 416.973 314.241 416.49C314.601 416.007 315.098 415.631 315.733 415.361C316.367 415.086 317.094 414.949 317.913 414.949C319.092 414.949 320.02 415.205 320.697 415.716C321.375 416.223 321.822 416.902 322.04 417.754ZM327.762 426.241C327.071 426.241 326.446 426.114 325.887 425.858C325.329 425.598 324.886 425.221 324.559 424.729C324.237 424.236 324.076 423.633 324.076 422.918C324.076 422.302 324.195 421.795 324.431 421.398C324.668 421 324.988 420.685 325.39 420.453C325.793 420.221 326.243 420.046 326.74 419.928C327.237 419.809 327.743 419.719 328.26 419.658C328.913 419.582 329.443 419.52 329.85 419.473C330.258 419.421 330.554 419.338 330.738 419.224C330.923 419.111 331.015 418.926 331.015 418.67V418.621C331.015 418 330.84 417.52 330.49 417.179C330.144 416.838 329.628 416.668 328.941 416.668C328.226 416.668 327.663 416.826 327.251 417.143C326.844 417.456 326.562 417.804 326.406 418.188L324.41 417.733C324.647 417.07 324.993 416.535 325.447 416.128C325.906 415.716 326.434 415.418 327.031 415.233C327.627 415.044 328.255 414.949 328.913 414.949C329.349 414.949 329.81 415.001 330.298 415.105C330.79 415.205 331.25 415.389 331.676 415.659C332.107 415.929 332.459 416.315 332.734 416.817C333.009 417.314 333.146 417.96 333.146 418.756V426H331.072V424.509H330.987C330.85 424.783 330.644 425.053 330.369 425.318C330.094 425.583 329.742 425.804 329.311 425.979C328.88 426.154 328.364 426.241 327.762 426.241ZM328.224 424.537C328.811 424.537 329.313 424.421 329.73 424.189C330.151 423.957 330.471 423.654 330.689 423.28C330.911 422.901 331.022 422.496 331.022 422.065V420.659C330.947 420.735 330.8 420.806 330.582 420.872C330.369 420.934 330.125 420.988 329.85 421.036C329.576 421.078 329.308 421.118 329.048 421.156C328.788 421.189 328.57 421.218 328.395 421.241C327.983 421.294 327.606 421.381 327.265 421.504C326.929 421.627 326.659 421.805 326.456 422.037C326.257 422.264 326.157 422.567 326.157 422.946C326.157 423.472 326.351 423.869 326.74 424.139C327.128 424.404 327.623 424.537 328.224 424.537ZM338.098 419.523V426H335.974V415.091H338.013V416.866H338.148C338.399 416.289 338.792 415.825 339.327 415.474C339.866 415.124 340.546 414.949 341.365 414.949C342.108 414.949 342.759 415.105 343.318 415.418C343.877 415.725 344.31 416.185 344.618 416.795C344.926 417.406 345.08 418.161 345.08 419.061V426H342.956V419.317C342.956 418.526 342.75 417.908 342.338 417.463C341.926 417.013 341.36 416.788 340.641 416.788C340.148 416.788 339.71 416.895 339.327 417.108C338.948 417.321 338.647 417.634 338.425 418.045C338.207 418.453 338.098 418.945 338.098 419.523ZM353.02 415.091V416.795H347.061V415.091H353.02ZM348.659 412.477H350.783V422.797C350.783 423.209 350.844 423.519 350.967 423.727C351.09 423.931 351.249 424.071 351.443 424.146C351.642 424.217 351.857 424.253 352.089 424.253C352.26 424.253 352.409 424.241 352.537 424.217C352.665 424.194 352.764 424.175 352.835 424.161L353.219 425.915C353.096 425.962 352.92 426.009 352.693 426.057C352.466 426.109 352.182 426.137 351.841 426.142C351.282 426.152 350.761 426.052 350.278 425.844C349.795 425.635 349.405 425.313 349.107 424.878C348.808 424.442 348.659 423.895 348.659 423.237V412.477ZM362.786 411.455V426H360.662V411.455H362.786ZM367.468 411.455V412.818C367.468 413.221 367.392 413.644 367.24 414.089C367.094 414.53 366.885 414.954 366.615 415.361C366.346 415.768 366.028 416.118 365.664 416.412L364.613 415.659C364.892 415.252 365.133 414.819 365.337 414.359C365.545 413.9 365.65 413.393 365.65 412.839V411.455H367.468ZM373.078 426.22C372.004 426.22 371.078 425.991 370.301 425.531C369.53 425.067 368.933 424.416 368.512 423.578C368.095 422.735 367.887 421.748 367.887 420.616C367.887 419.499 368.095 418.514 368.512 417.662C368.933 416.81 369.52 416.144 370.273 415.666C371.031 415.188 371.916 414.949 372.929 414.949C373.545 414.949 374.141 415.051 374.719 415.254C375.297 415.458 375.815 415.777 376.275 416.213C376.734 416.649 377.096 417.214 377.361 417.911C377.626 418.602 377.759 419.442 377.759 420.432V421.185H369.087V419.594H375.678C375.678 419.035 375.564 418.54 375.337 418.109C375.11 417.674 374.79 417.33 374.378 417.08C373.971 416.829 373.493 416.703 372.944 416.703C372.347 416.703 371.826 416.85 371.381 417.143C370.941 417.432 370.6 417.811 370.358 418.28C370.122 418.744 370.003 419.248 370.003 419.793V421.036C370.003 421.765 370.131 422.385 370.387 422.896C370.647 423.408 371.009 423.798 371.473 424.068C371.937 424.333 372.48 424.466 373.1 424.466C373.502 424.466 373.869 424.409 374.201 424.295C374.532 424.177 374.819 424.002 375.06 423.77C375.301 423.538 375.486 423.251 375.614 422.911L377.624 423.273C377.463 423.865 377.174 424.383 376.757 424.828C376.346 425.268 375.827 425.612 375.202 425.858C374.582 426.099 373.874 426.22 373.078 426.22ZM371.971 413.635L373.632 410.361H375.87L373.668 413.635H371.971ZM387.48 430.091V424.303H387.352C387.224 424.535 387.04 424.8 386.798 425.098C386.562 425.396 386.235 425.657 385.818 425.879C385.402 426.102 384.862 426.213 384.199 426.213C383.318 426.213 382.532 425.988 381.841 425.538C381.154 425.084 380.615 424.437 380.222 423.599C379.833 422.757 379.639 421.746 379.639 420.567C379.639 419.388 379.836 418.379 380.229 417.541C380.626 416.703 381.171 416.062 381.862 415.616C382.554 415.171 383.337 414.949 384.213 414.949C384.89 414.949 385.435 415.062 385.847 415.29C386.263 415.512 386.585 415.773 386.812 416.071C387.045 416.369 387.224 416.632 387.352 416.859H387.53V415.091H389.604V430.091H387.48ZM384.668 424.402C385.278 424.402 385.795 424.241 386.216 423.919C386.642 423.592 386.964 423.14 387.182 422.562C387.404 421.985 387.516 421.312 387.516 420.545C387.516 419.788 387.407 419.125 387.189 418.557C386.971 417.989 386.652 417.546 386.23 417.229C385.809 416.911 385.288 416.753 384.668 416.753C384.028 416.753 383.496 416.919 383.07 417.25C382.643 417.581 382.321 418.034 382.104 418.607C381.891 419.179 381.784 419.826 381.784 420.545C381.784 421.275 381.893 421.93 382.111 422.513C382.329 423.095 382.651 423.557 383.077 423.898C383.508 424.234 384.038 424.402 384.668 424.402ZM399.369 421.476V415.091H401.5V426H399.412V424.111H399.298C399.047 424.693 398.645 425.179 398.091 425.567C397.542 425.95 396.857 426.142 396.038 426.142C395.338 426.142 394.717 425.988 394.178 425.68C393.643 425.368 393.221 424.906 392.913 424.295C392.61 423.685 392.459 422.929 392.459 422.03V415.091H394.582V421.774C394.582 422.518 394.788 423.109 395.2 423.55C395.612 423.99 396.147 424.21 396.805 424.21C397.203 424.21 397.598 424.111 397.991 423.912C398.389 423.713 398.718 423.412 398.979 423.01C399.244 422.607 399.374 422.096 399.369 421.476ZM407.528 426.241C406.837 426.241 406.212 426.114 405.653 425.858C405.094 425.598 404.652 425.221 404.325 424.729C404.003 424.236 403.842 423.633 403.842 422.918C403.842 422.302 403.96 421.795 404.197 421.398C404.434 421 404.753 420.685 405.156 420.453C405.558 420.221 406.008 420.046 406.505 419.928C407.002 419.809 407.509 419.719 408.025 419.658C408.679 419.582 409.209 419.52 409.616 419.473C410.023 419.421 410.319 419.338 410.504 419.224C410.689 419.111 410.781 418.926 410.781 418.67V418.621C410.781 418 410.606 417.52 410.255 417.179C409.91 416.838 409.394 416.668 408.707 416.668C407.992 416.668 407.429 416.826 407.017 417.143C406.609 417.456 406.328 417.804 406.172 418.188L404.176 417.733C404.413 417.07 404.758 416.535 405.213 416.128C405.672 415.716 406.2 415.418 406.797 415.233C407.393 415.044 408.02 414.949 408.679 414.949C409.114 414.949 409.576 415.001 410.064 415.105C410.556 415.205 411.015 415.389 411.441 415.659C411.872 415.929 412.225 416.315 412.5 416.817C412.774 417.314 412.912 417.96 412.912 418.756V426H410.838V424.509H410.752C410.615 424.783 410.409 425.053 410.135 425.318C409.86 425.583 409.507 425.804 409.076 425.979C408.645 426.154 408.129 426.241 407.528 426.241ZM407.99 424.537C408.577 424.537 409.079 424.421 409.495 424.189C409.917 423.957 410.236 423.654 410.454 423.28C410.677 422.901 410.788 422.496 410.788 422.065V420.659C410.712 420.735 410.565 420.806 410.348 420.872C410.135 420.934 409.891 420.988 409.616 421.036C409.342 421.078 409.074 421.118 408.814 421.156C408.553 421.189 408.335 421.218 408.16 421.241C407.748 421.294 407.372 421.381 407.031 421.504C406.695 421.627 406.425 421.805 406.221 422.037C406.022 422.264 405.923 422.567 405.923 422.946C405.923 423.472 406.117 423.869 406.505 424.139C406.894 424.404 407.388 424.537 407.99 424.537ZM420.832 415.091V416.795H414.874V415.091H420.832ZM416.472 412.477H418.595V422.797C418.595 423.209 418.657 423.519 418.78 423.727C418.903 423.931 419.062 424.071 419.256 424.146C419.455 424.217 419.67 424.253 419.902 424.253C420.072 424.253 420.222 424.241 420.349 424.217C420.477 424.194 420.577 424.175 420.648 424.161L421.031 425.915C420.908 425.962 420.733 426.009 420.506 426.057C420.278 426.109 419.994 426.137 419.653 426.142C419.095 426.152 418.574 426.052 418.091 425.844C417.608 425.635 417.217 425.313 416.919 424.878C416.621 424.442 416.472 423.895 416.472 423.237V412.477ZM423.181 426V415.091H425.305V426H423.181ZM424.254 413.408C423.885 413.408 423.567 413.285 423.302 413.038C423.042 412.787 422.912 412.489 422.912 412.143C422.912 411.793 423.042 411.495 423.302 411.249C423.567 410.998 423.885 410.872 424.254 410.872C424.623 410.872 424.938 410.998 425.199 411.249C425.464 411.495 425.596 411.793 425.596 412.143C425.596 412.489 425.464 412.787 425.199 413.038C424.938 413.285 424.623 413.408 424.254 413.408ZM432.757 426.22C431.734 426.22 430.842 425.986 430.08 425.517C429.317 425.048 428.725 424.393 428.304 423.55C427.883 422.707 427.672 421.722 427.672 420.595C427.672 419.464 427.883 418.474 428.304 417.626C428.725 416.779 429.317 416.121 430.08 415.652C430.842 415.183 431.734 414.949 432.757 414.949C433.78 414.949 434.672 415.183 435.435 415.652C436.197 416.121 436.789 416.779 437.21 417.626C437.632 418.474 437.842 419.464 437.842 420.595C437.842 421.722 437.632 422.707 437.21 423.55C436.789 424.393 436.197 425.048 435.435 425.517C434.672 425.986 433.78 426.22 432.757 426.22ZM432.764 424.438C433.427 424.438 433.976 424.262 434.412 423.912C434.848 423.562 435.17 423.095 435.378 422.513C435.591 421.93 435.697 421.289 435.697 420.588C435.697 419.892 435.591 419.253 435.378 418.67C435.17 418.083 434.848 417.612 434.412 417.257C433.976 416.902 433.427 416.724 432.764 416.724C432.097 416.724 431.543 416.902 431.102 417.257C430.667 417.612 430.342 418.083 430.129 418.67C429.921 419.253 429.817 419.892 429.817 420.588C429.817 421.289 429.921 421.93 430.129 422.513C430.342 423.095 430.667 423.562 431.102 423.912C431.543 424.262 432.097 424.438 432.764 424.438ZM442.336 419.523V426H440.213V415.091H442.251V416.866H442.386C442.637 416.289 443.03 415.825 443.565 415.474C444.105 415.124 444.784 414.949 445.603 414.949C446.347 414.949 446.998 415.105 447.556 415.418C448.115 415.725 448.548 416.185 448.856 416.795C449.164 417.406 449.318 418.161 449.318 419.061V426H447.194V419.317C447.194 418.526 446.988 417.908 446.576 417.463C446.164 417.013 445.599 416.788 444.879 416.788C444.386 416.788 443.949 416.895 443.565 417.108C443.186 417.321 442.886 417.634 442.663 418.045C442.445 418.453 442.336 418.945 442.336 419.523ZM458.858 426.135C458.47 426.135 458.136 425.998 457.857 425.723C457.577 425.444 457.438 425.107 457.438 424.714C457.438 424.326 457.577 423.995 457.857 423.72C458.136 423.441 458.47 423.301 458.858 423.301C459.246 423.301 459.58 423.441 459.859 423.72C460.139 423.995 460.278 424.326 460.278 424.714C460.278 424.975 460.212 425.214 460.08 425.432C459.952 425.645 459.781 425.815 459.568 425.943C459.355 426.071 459.118 426.135 458.858 426.135ZM458.858 418.195C458.47 418.195 458.136 418.055 457.857 417.776C457.577 417.496 457.438 417.162 457.438 416.774C457.438 416.386 457.577 416.054 457.857 415.78C458.136 415.5 458.47 415.361 458.858 415.361C459.246 415.361 459.58 415.5 459.859 415.78C460.139 416.054 460.278 416.386 460.278 416.774C460.278 417.035 460.212 417.274 460.08 417.491C459.952 417.705 459.781 417.875 459.568 418.003C459.355 418.131 459.118 418.195 458.858 418.195ZM475.051 430.091C474.734 430.091 474.445 430.065 474.185 430.013C473.924 429.965 473.73 429.913 473.602 429.857L474.114 428.116C474.502 428.221 474.848 428.266 475.151 428.251C475.454 428.237 475.721 428.124 475.953 427.911C476.19 427.697 476.398 427.349 476.578 426.866L476.841 426.142L472.849 415.091H475.122L477.885 423.557H477.999L480.761 415.091H483.041L478.545 427.456C478.337 428.024 478.072 428.505 477.75 428.898C477.428 429.295 477.045 429.594 476.599 429.793C476.154 429.991 475.638 430.091 475.051 430.091ZM475.854 413.379C475.518 413.379 475.224 413.256 474.973 413.01C474.722 412.759 474.597 412.47 474.597 412.143C474.597 411.788 474.722 411.492 474.973 411.256C475.224 411.019 475.518 410.901 475.854 410.901C476.209 410.901 476.505 411.019 476.741 411.256C476.983 411.492 477.104 411.788 477.104 412.143C477.104 412.47 476.983 412.759 476.741 413.01C476.505 413.256 476.209 413.379 475.854 413.379ZM480.03 413.379C479.694 413.379 479.4 413.256 479.149 413.01C478.898 412.759 478.773 412.47 478.773 412.143C478.773 411.788 478.898 411.492 479.149 411.256C479.4 411.019 479.694 410.901 480.03 410.901C480.385 410.901 480.681 411.019 480.918 411.256C481.159 411.492 481.28 411.788 481.28 412.143C481.28 412.47 481.159 412.759 480.918 413.01C480.681 413.256 480.385 413.379 480.03 413.379ZM494.605 425.077V415.474H496.516V425.077H494.605ZM490.763 421.227V419.317H500.365V421.227H490.763ZM513.041 426.227C512.132 426.218 511.334 425.972 510.648 425.489C509.961 425.006 509.426 424.338 509.043 423.486C508.659 422.634 508.467 421.653 508.467 420.545C508.467 419.447 508.669 418.479 509.071 417.641C509.473 416.798 510.025 416.14 510.726 415.666C511.431 415.188 512.234 414.949 513.134 414.949C513.773 414.949 514.334 415.07 514.817 415.311C515.3 415.548 515.712 415.879 516.053 416.305C516.398 416.732 516.682 417.226 516.905 417.79H517.643L518.062 420.517L519.455 426H517.636L516.33 420.517C516.259 420.167 516.152 419.776 516.01 419.345C515.868 418.914 515.681 418.502 515.449 418.109C515.217 417.716 514.923 417.392 514.568 417.136C514.218 416.881 513.794 416.753 513.297 416.753C512.752 416.753 512.274 416.916 511.862 417.243C511.45 417.565 511.131 418.012 510.903 418.585C510.676 419.158 510.562 419.816 510.562 420.56C510.562 421.289 510.671 421.945 510.889 422.527C511.112 423.109 511.42 423.569 511.812 423.905C512.205 424.236 512.665 424.402 513.19 424.402C513.669 424.402 514.088 424.272 514.447 424.011C514.807 423.751 515.113 423.42 515.364 423.017C515.615 422.615 515.818 422.196 515.974 421.76C516.135 421.32 516.254 420.924 516.33 420.574L517.501 415.091H519.312L518.062 420.574L517.643 423.337H516.969C516.741 423.9 516.448 424.402 516.088 424.842C515.733 425.278 515.302 425.619 514.795 425.865C514.294 426.111 513.709 426.232 513.041 426.227ZM522.588 421.05C522.2 421.05 521.866 420.912 521.587 420.638C521.308 420.358 521.168 420.022 521.168 419.629C521.168 419.241 521.308 418.91 521.587 418.635C521.866 418.356 522.2 418.216 522.588 418.216C522.977 418.216 523.31 418.356 523.59 418.635C523.869 418.91 524.009 419.241 524.009 419.629C524.009 419.89 523.943 420.129 523.81 420.347C523.682 420.56 523.512 420.73 523.299 420.858C523.086 420.986 522.849 421.05 522.588 421.05ZM528.196 430.091C527.878 430.091 527.59 430.065 527.329 430.013C527.069 429.965 526.875 429.913 526.747 429.857L527.258 428.116C527.646 428.221 527.992 428.266 528.295 428.251C528.598 428.237 528.866 428.124 529.098 427.911C529.334 427.697 529.543 427.349 529.723 426.866L529.985 426.142L525.994 415.091H528.267L531.029 423.557H531.143L533.906 415.091H536.186L531.69 427.456C531.482 428.024 531.217 428.505 530.895 428.898C530.573 429.295 530.189 429.594 529.744 429.793C529.299 429.991 528.783 430.091 528.196 430.091ZM531.086 413.408C530.717 413.408 530.4 413.285 530.135 413.038C529.874 412.787 529.744 412.489 529.744 412.143C529.744 411.793 529.874 411.495 530.135 411.249C530.4 410.998 530.717 410.872 531.086 410.872C531.456 410.872 531.77 410.998 532.031 411.249C532.296 411.495 532.429 411.793 532.429 412.143C532.429 412.489 532.296 412.787 532.031 413.038C531.77 413.285 531.456 413.408 531.086 413.408ZM547.75 425.077V415.474H549.661V425.077H547.75ZM543.908 421.227V419.317H553.51V421.227H543.908ZM565.816 417.591H567.216C568.215 417.591 569.038 417.797 569.687 418.209C570.341 418.616 570.826 419.144 571.143 419.793C571.46 420.437 571.619 421.116 571.619 421.831C571.619 422.66 571.425 423.403 571.037 424.061C570.648 424.719 570.118 425.238 569.446 425.616C568.773 425.995 568.009 426.185 567.152 426.185C566.64 426.185 566.134 426.097 565.632 425.922C565.135 425.742 564.685 425.408 564.282 424.92L564.176 424.97V421.845C564.176 422.286 564.282 422.693 564.495 423.067C564.708 423.441 565.011 423.739 565.404 423.962C565.797 424.184 566.266 424.295 566.811 424.295C567.374 424.295 567.857 424.179 568.26 423.947C568.667 423.711 568.982 423.401 569.204 423.017C569.427 422.629 569.538 422.205 569.538 421.746C569.538 421.291 569.431 420.875 569.218 420.496C569.01 420.117 568.719 419.812 568.345 419.58C567.971 419.348 567.54 419.232 567.052 419.232H565.816V417.591ZM566.591 411.256C567.253 411.256 567.855 411.36 568.395 411.568C568.934 411.772 569.398 412.054 569.787 412.413C570.175 412.768 570.473 413.178 570.681 413.642C570.89 414.106 570.994 414.596 570.994 415.112C570.994 415.737 570.835 416.353 570.518 416.959C570.206 417.565 569.732 418.067 569.098 418.464C568.468 418.862 567.677 419.061 566.725 419.061H565.816V417.463H566.555C567.081 417.463 567.519 417.357 567.869 417.143C568.219 416.926 568.482 416.651 568.657 416.32C568.833 415.983 568.92 415.635 568.92 415.276C568.92 414.67 568.698 414.168 568.252 413.77C567.812 413.372 567.258 413.173 566.591 413.173C566.145 413.173 565.741 413.266 565.376 413.45C565.011 413.635 564.72 413.898 564.502 414.239C564.285 414.575 564.176 414.968 564.176 415.418V430.091H562.088V415.361C562.088 414.556 562.284 413.846 562.677 413.23C563.07 412.61 563.605 412.127 564.282 411.781C564.964 411.431 565.734 411.256 566.591 411.256ZM575.44 421.05C575.052 421.05 574.718 420.912 574.439 420.638C574.159 420.358 574.02 420.022 574.02 419.629C574.02 419.241 574.159 418.91 574.439 418.635C574.718 418.356 575.052 418.216 575.44 418.216C575.828 418.216 576.162 418.356 576.441 418.635C576.721 418.91 576.86 419.241 576.86 419.629C576.86 419.89 576.794 420.129 576.662 420.347C576.534 420.56 576.363 420.73 576.15 420.858C575.937 420.986 575.7 421.05 575.44 421.05ZM581.047 430.091C580.73 430.091 580.441 430.065 580.181 430.013C579.92 429.965 579.726 429.913 579.598 429.857L580.11 428.116C580.498 428.221 580.844 428.266 581.147 428.251C581.45 428.237 581.717 428.124 581.949 427.911C582.186 427.697 582.394 427.349 582.574 426.866L582.837 426.142L578.846 415.091H581.118L583.881 423.557H583.995L586.757 415.091H589.037L584.542 427.456C584.333 428.024 584.068 428.505 583.746 428.898C583.424 429.295 583.041 429.594 582.596 429.793C582.15 429.991 581.634 430.091 581.047 430.091ZM597.008 419.018V417.151H606.106V419.018H597.008ZM597.008 423.393V421.526H606.106V423.393H597.008ZM619.641 426.22C618.566 426.22 617.641 425.991 616.864 425.531C616.092 425.067 615.496 424.416 615.074 423.578C614.658 422.735 614.449 421.748 614.449 420.616C614.449 419.499 614.658 418.514 615.074 417.662C615.496 416.81 616.083 416.144 616.836 415.666C617.593 415.188 618.479 414.949 619.492 414.949C620.107 414.949 620.704 415.051 621.282 415.254C621.859 415.458 622.378 415.777 622.837 416.213C623.296 416.649 623.658 417.214 623.924 417.911C624.189 418.602 624.321 419.442 624.321 420.432V421.185H615.65V419.594H622.24C622.24 419.035 622.127 418.54 621.9 418.109C621.672 417.674 621.353 417.33 620.941 417.08C620.533 416.829 620.055 416.703 619.506 416.703C618.909 416.703 618.389 416.85 617.944 417.143C617.503 417.432 617.162 417.811 616.921 418.28C616.684 418.744 616.566 419.248 616.566 419.793V421.036C616.566 421.765 616.694 422.385 616.949 422.896C617.21 423.408 617.572 423.798 618.036 424.068C618.5 424.333 619.042 424.466 619.662 424.466C620.065 424.466 620.432 424.409 620.763 424.295C621.095 424.177 621.381 424.002 621.623 423.77C621.864 423.538 622.049 423.251 622.176 422.911L624.186 423.273C624.025 423.865 623.737 424.383 623.32 424.828C622.908 425.268 622.39 425.612 621.765 425.858C621.144 426.099 620.436 426.22 619.641 426.22Z" fill="white"/>
<defs>
<clipPath id="clip0_3_104">
<rect width="761" height="281" fill="white" transform="translate(0 56)"/>
</clipPath>
</defs>
</svg>

