<svg width="1447" height="1114" viewBox="0 0 1447 1114" fill="none" xmlns="http://www.w3.org/2000/svg">
<mask id="mask0_13_38" style="mask-type:luminance" maskUnits="userSpaceOnUse" x="115" y="44" width="4" height="955">
<path d="M115.854 44.9499H118.219V998.36H115.854V44.9499Z" fill="white"/>
</mask>
<g mask="url(#mask0_13_38)">
<path d="M115.762 998.453V45.1347" stroke="#77767B" stroke-width="0.6" stroke-miterlimit="10" stroke-linecap="round" stroke-linejoin="round"/>
</g>
<path d="M115.762 998.453V988.99" stroke="#C0BFBC" stroke-miterlimit="10" stroke-linejoin="round"/>
<path d="M116.132 1036.6C120.528 1036.6 123.262 1032.72 123.262 1026.32C123.262 1020.11 120.639 1016.31 116.353 1016.31C111.883 1016.31 109.149 1020.23 109.149 1026.58C109.149 1032.83 111.809 1036.6 116.132 1036.6ZM116.316 1034.57C113.361 1034.57 111.514 1031.46 111.514 1026.32C111.514 1021.33 113.287 1018.34 116.169 1018.34C119.05 1018.34 120.86 1021.45 120.86 1026.58C120.86 1031.57 119.161 1034.57 116.316 1034.57Z" fill="white"/>
<mask id="mask1_13_38" style="mask-type:luminance" maskUnits="userSpaceOnUse" x="371" y="44" width="5" height="955">
<path d="M371.208 44.9499H375.936V998.36H371.208V44.9499Z" fill="white"/>
</mask>
<g mask="url(#mask1_13_38)">
<path d="M374.228 998.453V45.1347" stroke="#77767B" stroke-width="0.6" stroke-miterlimit="10" stroke-linecap="round" stroke-linejoin="round"/>
</g>
<path d="M374.228 998.453V988.99" stroke="#C0BFBC" stroke-miterlimit="10" stroke-linejoin="round"/>
<path d="M375.816 1036.45H378.07V1016.6H376.703L369.684 1020.23L370.533 1021.85L376.555 1019.01L375.816 1018.27V1036.45Z" fill="white"/>
<mask id="mask2_13_38" style="mask-type:luminance" maskUnits="userSpaceOnUse" x="631" y="44" width="3" height="955">
<path d="M631.289 44.9499H633.654V998.36H631.289V44.9499Z" fill="white"/>
</mask>
<g mask="url(#mask2_13_38)">
<path d="M632.693 998.453V45.1347" stroke="#77767B" stroke-width="0.6" stroke-miterlimit="10" stroke-linecap="round" stroke-linejoin="round"/>
</g>
<path d="M632.693 998.453V988.99" stroke="#C0BFBC" stroke-miterlimit="10" stroke-linejoin="round"/>
<path d="M626.893 1036.31H639.38V1034.27H629.331L629.627 1034.94C636.35 1028.62 638.641 1025.33 638.641 1021.89C638.641 1018.41 636.277 1016.31 632.619 1016.31C630.292 1016.31 628.038 1017.16 626.597 1018.56L627.262 1020.23C628.74 1019.01 630.624 1018.38 632.139 1018.38C634.688 1018.38 636.24 1019.89 636.24 1022.26C636.24 1025.1 633.949 1028.1 626.893 1034.75V1036.31Z" fill="white"/>
<mask id="mask3_13_38" style="mask-type:luminance" maskUnits="userSpaceOnUse" x="889" y="44" width="5" height="955">
<path d="M889.007 44.9499H893.735V998.36H889.007V44.9499Z" fill="white"/>
</mask>
<g mask="url(#mask3_13_38)">
<path d="M891.149 998.453V45.1347" stroke="#77767B" stroke-width="0.6" stroke-miterlimit="10" stroke-linecap="round" stroke-linejoin="round"/>
</g>
<path d="M891.149 998.453V988.99" stroke="#C0BFBC" stroke-miterlimit="10" stroke-linejoin="round"/>
<path d="M890.189 1036.6C894.511 1036.6 897.503 1034.35 897.503 1030.95C897.503 1028.06 895.287 1026.03 891.925 1025.96L891.482 1026.29C894.437 1026.21 896.469 1024.22 896.469 1021.48C896.469 1018.38 893.957 1016.34 890.262 1016.34C888.231 1016.34 885.977 1017.01 884.278 1017.97L884.832 1019.71C886.605 1018.86 888.452 1018.38 889.893 1018.38C892.405 1018.38 894.252 1019.71 894.252 1021.7C894.252 1023.89 892.147 1025.33 889.265 1025.33H887.713V1027.32H889.782C893.07 1027.32 895.139 1028.76 895.139 1031.09C895.139 1033.31 893.218 1034.53 890.262 1034.53C888.563 1034.53 886.236 1034.09 884.388 1033.2L883.908 1035.09C885.792 1036.05 888.12 1036.6 890.189 1036.6Z" fill="white"/>
<mask id="mask4_13_38" style="mask-type:luminance" maskUnits="userSpaceOnUse" x="1146" y="44" width="6" height="955">
<path d="M1146.72 44.9499H1151.45V998.36H1146.72V44.9499Z" fill="white"/>
</mask>
<g mask="url(#mask4_13_38)">
<path d="M1149.61 998.453V45.1347" stroke="#77767B" stroke-width="0.6" stroke-miterlimit="10" stroke-linecap="round" stroke-linejoin="round"/>
</g>
<path d="M1149.61 998.453V988.99" stroke="#C0BFBC" stroke-miterlimit="10" stroke-linejoin="round"/>
<path d="M1151.79 1036.6H1154.05V1016.6H1151.87L1142 1030.46V1031.65H1157.59V1029.73H1144.22L1144.44 1030.21L1152.27 1018.97L1151.83 1018.89L1151.79 1036.6Z" fill="white"/>
<mask id="mask5_13_38" style="mask-type:luminance" maskUnits="userSpaceOnUse" x="1406" y="44" width="4" height="955">
<path d="M1406.81 44.9499H1409.17V998.36H1406.81V44.9499Z" fill="white"/>
</mask>
<g mask="url(#mask5_13_38)">
<path d="M1408.08 998.453V45.1347" stroke="#77767B" stroke-width="0.6" stroke-miterlimit="10" stroke-linecap="round" stroke-linejoin="round"/>
</g>
<path d="M1408.08 998.453V988.99" stroke="#C0BFBC" stroke-miterlimit="10" stroke-linejoin="round"/>
<path d="M1406.71 1036.6C1411.11 1036.6 1414.06 1034.09 1414.06 1030.24C1414.06 1026.55 1411.37 1024.22 1406.97 1024.22C1405.86 1024.22 1404.79 1024.37 1403.79 1024.59L1404.39 1025.33L1404.68 1018.64H1413.1V1016.6H1402.54L1402.06 1026.69C1403.35 1026.4 1405.01 1026.21 1406.23 1026.21C1409.59 1026.21 1411.63 1027.77 1411.63 1030.43C1411.63 1032.98 1409.78 1034.53 1406.86 1034.53C1405.16 1034.53 1403.28 1034.05 1401.84 1033.24L1401.13 1035.12C1402.91 1036.05 1404.76 1036.6 1406.71 1036.6Z" fill="white"/>
<path d="M167.455 998.453V993.721" stroke="#C0BFBC" stroke-width="0.5" stroke-miterlimit="10" stroke-linejoin="round"/>
<path d="M219.148 998.453V993.721" stroke="#C0BFBC" stroke-width="0.5" stroke-miterlimit="10" stroke-linejoin="round"/>
<path d="M270.842 998.453V993.721" stroke="#C0BFBC" stroke-width="0.5" stroke-miterlimit="10" stroke-linejoin="round"/>
<path d="M322.535 998.453V993.721" stroke="#C0BFBC" stroke-width="0.5" stroke-miterlimit="10" stroke-linejoin="round"/>
<path d="M425.921 998.453V993.721" stroke="#C0BFBC" stroke-width="0.5" stroke-miterlimit="10" stroke-linejoin="round"/>
<path d="M477.614 998.453V993.721" stroke="#C0BFBC" stroke-width="0.5" stroke-miterlimit="10" stroke-linejoin="round"/>
<path d="M529.307 998.453V993.721" stroke="#C0BFBC" stroke-width="0.5" stroke-miterlimit="10" stroke-linejoin="round"/>
<path d="M581 998.453V993.721" stroke="#C0BFBC" stroke-width="0.5" stroke-miterlimit="10" stroke-linejoin="round"/>
<path d="M684.386 998.453V993.721" stroke="#C0BFBC" stroke-width="0.5" stroke-miterlimit="10" stroke-linejoin="round"/>
<path d="M736.079 998.453V993.721" stroke="#C0BFBC" stroke-width="0.5" stroke-miterlimit="10" stroke-linejoin="round"/>
<path d="M787.763 998.453V993.721" stroke="#C0BFBC" stroke-width="0.5" stroke-miterlimit="10" stroke-linejoin="round"/>
<path d="M839.456 998.453V993.721" stroke="#C0BFBC" stroke-width="0.5" stroke-miterlimit="10" stroke-linejoin="round"/>
<path d="M942.842 998.453V993.721" stroke="#C0BFBC" stroke-width="0.5" stroke-miterlimit="10" stroke-linejoin="round"/>
<path d="M994.535 998.453V993.721" stroke="#C0BFBC" stroke-width="0.5" stroke-miterlimit="10" stroke-linejoin="round"/>
<path d="M1046.23 998.453V993.721" stroke="#C0BFBC" stroke-width="0.5" stroke-miterlimit="10" stroke-linejoin="round"/>
<path d="M1097.92 998.453V993.721" stroke="#C0BFBC" stroke-width="0.5" stroke-miterlimit="10" stroke-linejoin="round"/>
<path d="M1201.31 998.453V993.721" stroke="#C0BFBC" stroke-width="0.5" stroke-miterlimit="10" stroke-linejoin="round"/>
<path d="M1253 998.453V993.721" stroke="#C0BFBC" stroke-width="0.5" stroke-miterlimit="10" stroke-linejoin="round"/>
<path d="M1304.69 998.453V993.721" stroke="#C0BFBC" stroke-width="0.5" stroke-miterlimit="10" stroke-linejoin="round"/>
<path d="M1356.39 998.453V993.721" stroke="#C0BFBC" stroke-width="0.5" stroke-miterlimit="10" stroke-linejoin="round"/>
<path d="M732.292 1076.67C733.253 1076.67 734.177 1076.45 734.842 1076.15L734.324 1074.49C733.881 1074.71 733.29 1074.82 732.81 1074.82C731.369 1074.82 730.445 1073.9 730.445 1072.53V1058.85H728.155V1072.86C728.155 1075.12 729.817 1076.67 732.292 1076.67ZM726.308 1064.73H734.177V1062.85H726.308V1064.73Z" fill="white"/>
<path d="M747.521 1081.59L749.146 1080.63C746.782 1076.49 745.821 1073.01 745.821 1068.02C745.821 1063.81 746.782 1060.44 749.146 1056.27L747.447 1055.27C744.565 1060 743.531 1063.7 743.531 1068.24C743.531 1073.53 744.639 1077.19 747.521 1081.59Z" fill="white"/>
<path d="M771.023 1076.52H773.313V1067.54C773.313 1064.51 771.319 1062.55 768.289 1062.55C766.331 1062.55 764.41 1063.4 762.969 1064.92L763.523 1066.36C764.632 1065.21 766.11 1064.55 767.661 1064.55C769.841 1064.55 771.023 1065.8 771.023 1068.02V1076.52ZM752.662 1076.52H754.916V1064.44L754.251 1062.85H752.662V1076.52ZM761.861 1076.52H764.115V1067.54C764.115 1064.51 762.12 1062.55 759.127 1062.55C757.132 1062.55 755.211 1063.4 753.77 1064.92L754.325 1066.36C755.433 1065.21 756.911 1064.55 758.462 1064.55C760.642 1064.55 761.861 1065.8 761.861 1068.02V1076.52Z" fill="white"/>
<path d="M781.938 1076.82C785.3 1076.82 787.369 1075.23 787.369 1072.68C787.369 1067.65 779.204 1069.54 779.204 1066.43C779.204 1065.25 780.497 1064.47 782.529 1064.47C783.674 1064.47 785.041 1064.73 786.223 1065.14L786.741 1063.29C785.595 1062.81 784.192 1062.55 782.751 1062.55C779.204 1062.55 776.951 1064.1 776.951 1066.69C776.951 1071.61 785.078 1069.57 785.078 1072.9C785.078 1074.16 783.97 1074.86 782.086 1074.86C780.645 1074.86 778.724 1074.49 777.283 1073.86L776.729 1075.71C778.318 1076.41 780.202 1076.82 781.938 1076.82Z" fill="white"/>
<path d="M791.372 1081.59C794.29 1077.19 795.361 1073.53 795.361 1068.24C795.361 1063.7 794.327 1060 791.482 1055.27L789.746 1056.27C792.11 1060.44 793.071 1063.81 793.071 1068.02C793.071 1073.01 792.11 1076.49 789.746 1080.63L791.372 1081.59Z" fill="white"/>
<mask id="mask6_13_38" style="mask-type:luminance" maskUnits="userSpaceOnUse" x="115" y="995" width="1295" height="4">
<path d="M115.854 995.995H1409.17V998.361H115.854V995.995Z" fill="white"/>
</mask>
<g mask="url(#mask6_13_38)">
<path d="M115.762 998.453H1408.08" stroke="#77767B" stroke-width="0.6" stroke-miterlimit="10" stroke-linecap="round" stroke-linejoin="round"/>
</g>
<path d="M115.762 998.453H125.22" stroke="#C0BFBC" stroke-miterlimit="10" stroke-linejoin="round"/>
<path d="M91.3055 1005.85C95.7018 1005.85 98.4356 1001.96 98.4356 995.57C98.4356 989.359 95.8126 985.552 91.5272 985.552C87.0571 985.552 84.3232 989.47 84.3232 995.828C84.3232 1002.08 86.9832 1005.85 91.3055 1005.85ZM91.4903 1003.81C88.5348 1003.81 86.6876 1000.71 86.6876 995.57C86.6876 990.579 88.4609 987.585 91.3425 987.585C94.2241 987.585 96.0343 990.69 96.0343 995.828C96.0343 1000.82 94.3349 1003.81 91.4903 1003.81Z" fill="white"/>
<mask id="mask7_13_38" style="mask-type:luminance" maskUnits="userSpaceOnUse" x="115" y="806" width="1295" height="4">
<path d="M115.854 806.732H1409.17V809.098H115.854V806.732Z" fill="white"/>
</mask>
<g mask="url(#mask7_13_38)">
<path d="M115.762 807.795H1408.08" stroke="#77767B" stroke-width="0.6" stroke-miterlimit="10" stroke-linecap="round" stroke-linejoin="round"/>
</g>
<path d="M115.762 807.795H125.22" stroke="#C0BFBC" stroke-miterlimit="10" stroke-linejoin="round"/>
<path d="M86.3183 814.892H98.8051V812.859H88.7565L89.0521 813.524C95.7758 807.203 98.0663 803.913 98.0663 800.476C98.0663 797.001 95.7019 794.894 92.0445 794.894C89.717 794.894 87.4635 795.744 86.0227 797.149L86.6877 798.812C88.1654 797.592 90.0495 796.964 91.5642 796.964C94.1133 796.964 95.6649 798.48 95.6649 800.845C95.6649 803.692 93.3744 806.686 86.3183 813.34V814.892Z" fill="white"/>
<mask id="mask8_13_38" style="mask-type:luminance" maskUnits="userSpaceOnUse" x="115" y="615" width="1295" height="5">
<path d="M115.854 615.104H1409.17V619.835H115.854V615.104Z" fill="white"/>
</mask>
<g mask="url(#mask8_13_38)">
<path d="M115.762 617.128H1408.08" stroke="#77767B" stroke-width="0.6" stroke-miterlimit="10" stroke-linecap="round" stroke-linejoin="round"/>
</g>
<path d="M115.762 617.128H125.22" stroke="#C0BFBC" stroke-miterlimit="10" stroke-linejoin="round"/>
<path d="M93.1159 624.521H95.3695V604.522H93.1898L83.3259 618.384V619.567H98.9161V617.645H85.5425L85.7642 618.126L93.5962 606.888L93.1529 606.814L93.1159 624.521Z" fill="white"/>
<mask id="mask9_13_38" style="mask-type:luminance" maskUnits="userSpaceOnUse" x="115" y="423" width="1295" height="6">
<path d="M115.854 423.475H1409.17V428.207H115.854V423.475Z" fill="white"/>
</mask>
<g mask="url(#mask9_13_38)">
<path d="M115.762 426.469H1408.08" stroke="#77767B" stroke-width="0.6" stroke-miterlimit="10" stroke-linecap="round" stroke-linejoin="round"/>
</g>
<path d="M115.762 426.469H125.22" stroke="#C0BFBC" stroke-miterlimit="10" stroke-linejoin="round"/>
<path d="M91.2687 433.862C95.0739 433.862 97.7707 431.164 97.7707 427.357C97.7707 423.808 95.4433 421.442 92.0076 421.442C89.089 421.442 86.7616 423.179 86.0597 425.915L86.5399 427.135C87.168 424.769 89.0151 423.401 91.3795 423.401C93.9286 423.401 95.5172 425.065 95.5172 427.615C95.5172 430.129 94.0025 431.792 91.5273 431.792C88.3132 431.792 86.5769 429.094 86.5769 423.956C86.5769 418.448 88.6088 415.639 92.7464 415.639C94.1133 415.639 95.5541 415.971 96.8102 416.637L97.5121 414.788C95.9236 413.938 94.4458 413.568 92.8573 413.568C87.4266 413.568 84.2864 417.598 84.2864 424.288C84.2864 430.314 86.8355 433.862 91.2687 433.862Z" fill="white"/>
<mask id="mask10_13_38" style="mask-type:luminance" maskUnits="userSpaceOnUse" x="115" y="234" width="1295" height="3">
<path d="M115.854 234.213H1409.17V236.578H115.854V234.213Z" fill="white"/>
</mask>
<g mask="url(#mask10_13_38)">
<path d="M115.762 235.802H1408.08" stroke="#77767B" stroke-width="0.6" stroke-miterlimit="10" stroke-linecap="round" stroke-linejoin="round"/>
</g>
<path d="M115.762 235.802H125.22" stroke="#C0BFBC" stroke-miterlimit="10" stroke-linejoin="round"/>
<path d="M90.8992 243.195C95.0369 243.195 97.7707 241.051 97.7707 237.946C97.7707 231.625 87.131 232.845 87.131 227.854C87.131 226.08 88.461 224.897 90.6776 224.897C93.005 224.897 94.6675 226.191 94.6675 228.039C94.6675 229.851 93.0789 231.44 90.7515 231.921L92.4878 232.808C95.2216 231.995 96.921 229.962 96.921 227.67C96.921 224.823 94.4458 222.901 90.9362 222.901C87.2788 222.901 84.8036 225.008 84.8036 228.039C84.8036 234.508 95.3694 233.03 95.3694 238.057C95.3694 239.942 93.8547 241.125 91.2687 241.125C88.461 241.125 86.503 239.757 86.503 237.65C86.503 235.617 88.2393 233.991 90.8623 233.621L89.3476 232.66C86.2074 233.067 84.0647 235.285 84.0647 237.983C84.0647 241.088 86.8724 243.195 90.8992 243.195Z" fill="white"/>
<mask id="mask11_13_38" style="mask-type:luminance" maskUnits="userSpaceOnUse" x="115" y="44" width="1295" height="4">
<path d="M115.854 44.9499H1409.17V47.3157H115.854V44.9499Z" fill="white"/>
</mask>
<g mask="url(#mask11_13_38)">
<path d="M115.762 45.1347H1408.08" stroke="#77767B" stroke-width="0.6" stroke-miterlimit="10" stroke-linecap="round" stroke-linejoin="round"/>
</g>
<path d="M115.762 45.1347H125.22" stroke="#C0BFBC" stroke-miterlimit="10" stroke-linejoin="round"/>
<path d="M77.1563 52.3799H79.4098V32.5295H78.0429L71.0237 36.1521L71.8734 37.7786L77.8952 34.9323L77.1563 34.193V52.3799Z" fill="white"/>
<path d="M91.4852 52.5278C95.8815 52.5278 98.6153 48.6464 98.6153 42.2514C98.6153 36.0412 95.9923 32.2338 91.7069 32.2338C87.2367 32.2338 84.5029 36.1521 84.5029 42.5102C84.5029 48.7573 87.1629 52.5278 91.4852 52.5278ZM91.67 50.4947C88.7145 50.4947 86.8673 47.3896 86.8673 42.2514C86.8673 37.2611 88.6406 34.2669 91.5222 34.2669C94.4038 34.2669 96.214 37.372 96.214 42.5102C96.214 47.5005 94.5146 50.4947 91.67 50.4947Z" fill="white"/>
<path d="M115.762 950.786H120.491" stroke="#C0BFBC" stroke-width="0.5" stroke-miterlimit="10" stroke-linejoin="round"/>
<path d="M115.762 903.119H120.491" stroke="#C0BFBC" stroke-width="0.5" stroke-miterlimit="10" stroke-linejoin="round"/>
<path d="M115.762 855.462H120.491" stroke="#C0BFBC" stroke-width="0.5" stroke-miterlimit="10" stroke-linejoin="round"/>
<path d="M115.762 760.128H120.491" stroke="#C0BFBC" stroke-width="0.5" stroke-miterlimit="10" stroke-linejoin="round"/>
<path d="M115.762 712.461H120.491" stroke="#C0BFBC" stroke-width="0.5" stroke-miterlimit="10" stroke-linejoin="round"/>
<path d="M115.762 664.794H120.491" stroke="#C0BFBC" stroke-width="0.5" stroke-miterlimit="10" stroke-linejoin="round"/>
<path d="M115.762 569.461H120.491" stroke="#C0BFBC" stroke-width="0.5" stroke-miterlimit="10" stroke-linejoin="round"/>
<path d="M115.762 521.794H120.491" stroke="#C0BFBC" stroke-width="0.5" stroke-miterlimit="10" stroke-linejoin="round"/>
<path d="M115.762 474.127H120.491" stroke="#C0BFBC" stroke-width="0.5" stroke-miterlimit="10" stroke-linejoin="round"/>
<path d="M115.762 378.803H120.491" stroke="#C0BFBC" stroke-width="0.5" stroke-miterlimit="10" stroke-linejoin="round"/>
<path d="M115.762 331.136H120.491" stroke="#C0BFBC" stroke-width="0.5" stroke-miterlimit="10" stroke-linejoin="round"/>
<path d="M115.762 283.469H120.491" stroke="#C0BFBC" stroke-width="0.5" stroke-miterlimit="10" stroke-linejoin="round"/>
<path d="M115.762 188.135H120.491" stroke="#C0BFBC" stroke-width="0.5" stroke-miterlimit="10" stroke-linejoin="round"/>
<path d="M115.762 140.468H120.491" stroke="#C0BFBC" stroke-width="0.5" stroke-miterlimit="10" stroke-linejoin="round"/>
<path d="M115.762 92.8015H120.491" stroke="#C0BFBC" stroke-width="0.5" stroke-miterlimit="10" stroke-linejoin="round"/>
<path d="M51.9238 585.929V583.563H34.2648V576.983H32.2329V592.472H34.2648V585.929H51.9238Z" fill="white"/>
<path d="M52.2194 568.197C52.2194 566.607 51.85 564.907 51.185 563.687L49.5225 564.205C50.0397 565.24 50.3722 566.607 50.3722 567.79C50.3722 571.006 48.2295 572.892 44.6829 572.892C41.5797 572.892 39.8803 571.487 39.8803 569.01C39.8803 566.681 41.395 565.314 44.018 565.314V573.298H45.7173V563.317C45.274 563.244 44.2766 563.17 43.7593 563.17C40.3236 563.17 37.9592 565.461 37.9592 568.825C37.9592 572.633 40.9516 575.22 45.1263 575.22C49.5225 575.22 52.2194 572.522 52.2194 568.197Z" fill="white"/>
<path d="M51.9238 550.028V547.736H42.9466C39.9172 547.736 37.9592 549.77 37.9592 552.838C37.9592 554.797 38.8089 556.756 40.3236 558.235L41.7644 557.68C40.6192 556.534 39.9542 555.056 39.9542 553.466C39.9542 551.248 41.2102 550.028 43.4269 550.028H51.9238ZM51.9238 559.344V557.089H39.8433L38.2548 557.754V559.344H51.9238Z" fill="white"/>
<path d="M52.2194 539.107C52.2194 535.743 50.6308 533.673 48.0817 533.673C43.0574 533.673 44.9415 541.842 41.8383 541.842C40.6561 541.842 39.8803 540.548 39.8803 538.515C39.8803 537.369 40.1389 536.002 40.5453 534.819L38.6981 534.301C38.2178 535.447 37.9592 536.852 37.9592 538.293C37.9592 541.842 39.5109 544.097 42.0969 544.097C47.0104 544.097 44.9785 535.965 48.3034 535.965C49.5595 535.965 50.2614 537.074 50.2614 538.959C50.2614 540.4 49.892 542.323 49.2639 543.764L51.1111 544.319C51.813 542.729 52.2194 540.844 52.2194 539.107Z" fill="white"/>
<path d="M51.924 530.074V527.819H38.2549V530.074H51.924ZM35.0408 528.928C35.0408 527.893 34.4497 527.302 33.4153 527.302C32.4178 527.302 31.7898 527.893 31.7898 528.928C31.7898 529.926 32.4178 530.555 33.4153 530.555C34.4497 530.555 35.0408 529.926 35.0408 528.928Z" fill="white"/>
<path d="M52.2194 517.582C52.2194 513.553 49.3009 510.818 44.9046 510.818C40.693 510.818 37.9592 513.368 37.9592 517.25C37.9592 521.279 40.8408 523.977 45.2371 523.977C49.4486 523.977 52.2194 521.464 52.2194 517.582ZM50.2244 517.287C50.2244 519.911 48.0817 521.723 44.9415 521.723C41.9122 521.723 39.9542 520.096 39.9542 517.546C39.9542 514.921 42.0969 513.11 45.2371 513.11C48.2295 513.11 50.2244 514.736 50.2244 517.287Z" fill="white"/>
<path d="M51.9238 497.678V495.386H42.9466C39.9172 495.386 37.9592 497.42 37.9592 500.488C37.9592 502.447 38.8089 504.406 40.3236 505.885L41.7644 505.33C40.6192 504.184 39.9542 502.706 39.9542 501.116C39.9542 498.898 41.2102 497.678 43.4269 497.678H51.9238ZM51.9238 506.994V504.739H39.8433L38.2548 505.404V506.994H51.9238Z" fill="white"/>
<path d="M56.9851 481.25L56.0246 479.624C51.8869 481.99 48.4142 482.951 43.4269 482.951C39.2153 482.951 35.8535 481.99 31.6789 479.624L30.6814 481.324C35.4102 484.207 39.1045 485.243 43.6485 485.243C48.9314 485.243 52.5888 484.134 56.9851 481.25Z" fill="white"/>
<path d="M51.9238 471.079V468.75L32.2329 461.578V463.981L51.111 470.524V469.119L32.2329 475.551V478.25L51.9238 471.079Z" fill="white"/>
<path d="M56.9851 458.58C52.5888 455.66 48.9314 454.588 43.6485 454.588C39.1045 454.588 35.4102 455.623 30.6814 458.469L31.6789 460.207C35.8535 457.841 39.2153 456.88 43.4269 456.88C48.4142 456.88 51.8869 457.841 56.0246 460.207L56.9851 458.58Z" fill="white"/>
<mask id="mask12_13_38" style="mask-type:luminance" maskUnits="userSpaceOnUse" x="115" y="153" width="1295" height="846">
<path d="M115.854 153.776H1409.17V998.361H115.854V153.776Z" fill="white"/>
</mask>
<g mask="url(#mask12_13_38)">
<path d="M115.762 992.502L118.348 974.629L120.925 938.588L123.511 886.466L126.097 820.973L131.269 662.826L139.018 411.406L141.604 337.78L144.19 274.237L146.776 223.086L149.362 186.028L151.948 164.126L154.525 157.787L157.111 166.751L159.697 190.131L162.283 226.478L164.869 273.858L167.455 329.925L172.618 457.53L177.79 587.112L180.376 645.933L182.962 697.638L185.548 740.333L188.134 772.53L190.711 793.267L193.297 802.047L195.883 798.923L198.469 784.405L201.055 759.5L203.641 725.565L206.218 684.312L211.39 587.851L216.562 487.074L219.148 440.331L221.734 398.533L224.311 363.231L226.897 335.692L229.483 316.784L232.069 307.007L234.655 306.461L237.241 314.862L239.827 331.561L242.404 355.588L244.99 385.697L250.162 458.241L257.911 573.231L260.497 606.823L263.083 635.777L265.669 659.028L268.255 675.819L270.841 685.661L273.428 688.378L276.004 684.109L278.59 673.241L281.176 656.468L283.762 634.668L286.348 608.921L291.511 550.442L296.683 491.186L299.269 464.331L301.855 440.766L304.442 421.34L307.028 406.73L309.604 397.378L312.19 393.496L314.776 395.067L317.362 401.832L319.949 413.356L322.535 428.983L325.121 447.928L330.283 492.157L335.456 538.253L338.042 559.6L340.628 578.665L343.204 594.736L345.79 607.248L348.376 615.797L350.963 620.168L353.549 620.307L356.135 616.36L358.721 608.625L361.297 597.554L363.883 583.702L369.056 550.433L376.814 497.84L379.39 482.518L381.977 469.331L384.563 458.759L387.149 451.153L389.735 446.726L392.321 445.562L394.897 447.604L397.484 452.641L400.07 460.385L402.656 470.421L405.242 482.241L410.414 509.041L415.577 536.136L418.163 548.39L420.749 559.138L423.335 567.973L425.921 574.599L428.498 578.822L431.084 580.532L433.67 579.746L436.256 576.595L438.842 571.272L441.428 564.073L444.014 555.368L449.177 535.092L454.349 514.003L456.935 504.254L459.521 495.567L462.107 488.248L464.684 482.564L467.27 478.701L469.856 476.752L472.442 476.733L475.028 478.591L477.614 482.167L480.191 487.268L482.777 493.635L487.949 508.893L495.707 532.948L498.284 539.944L500.87 545.951L503.456 550.756L506.042 554.203L508.628 556.19L511.214 556.68L513.791 555.71L516.377 553.371L518.963 549.795L521.549 545.184L526.721 533.761L534.47 515.085L537.056 509.494L539.642 504.596L542.228 500.576L544.814 497.563L547.4 495.669L549.977 494.911L552.563 495.299L555.149 496.768L557.735 499.226L560.321 502.544L562.907 506.546L568.07 515.833L575.828 529.935L578.414 533.9L581 537.227L583.577 539.805L586.163 541.552L588.749 542.43L591.335 542.411L593.921 541.543L596.507 539.888L599.093 537.532L601.67 534.602L606.842 527.607L614.6 516.609L617.177 513.412L619.763 510.676L622.349 508.496L624.935 506.934L627.521 506.047L630.107 505.834L632.693 506.296L635.27 507.377L637.856 509.032L640.442 511.148L645.614 516.397L653.363 524.936L658.535 529.723L661.121 531.553L663.707 532.92L666.293 533.771L668.87 534.103L671.456 533.918L674.042 533.225L676.628 532.089L679.214 530.564L684.386 526.664L694.721 518.023L699.893 514.696L702.47 513.532L705.056 512.737L707.642 512.349L710.228 512.368L712.814 512.774L715.4 513.541L720.563 515.972L728.321 520.907L733.493 524.215L738.656 526.914L741.242 527.912L743.828 528.614L746.414 529.011L749 529.104L751.586 528.882L756.749 527.616L761.921 525.5L777.428 518.143L782.6 516.693L787.763 516.166L792.935 516.572L798.107 517.802L805.856 520.602L813.614 523.55L818.786 525.065L823.949 525.952L829.121 526.11L834.293 525.564L839.456 524.446L860.135 518.994L865.307 518.495L870.479 518.559L875.642 519.142L883.4 520.694L896.321 523.476L901.493 524.141L906.666 524.372L911.828 524.178L919.586 523.226L937.68 520.297L945.428 519.816L953.187 520.075L960.935 520.916L976.442 522.884L984.201 523.309L991.959 523.171L1002.29 522.293L1017.8 520.851L1025.56 520.62L1033.31 520.823L1046.23 521.775L1059.16 522.598L1069.49 522.653L1082.41 522.034L1100.51 521.138L1110.85 521.175L1128.94 521.951L1141.87 522.33L1154.79 522.173L1185.8 521.387L1203.89 521.766L1224.57 522.117L1245.25 521.785L1265.93 521.554L1333.13 521.692L1358.97 521.748L1392.57 521.877L1410.67 521.748" stroke="#FF696C" stroke-width="4" stroke-miterlimit="10" stroke-linecap="round" stroke-linejoin="round"/>
</g>
<path d="M115.762 998.453V45.1347" stroke="#C0BFBC" stroke-width="0.8" stroke-miterlimit="10" stroke-linecap="square"/>
<path d="M115.762 998.453H1408.08" stroke="#C0BFBC" stroke-width="0.8" stroke-miterlimit="10" stroke-linecap="square"/>
</svg>

