<svg width="794" height="580" viewBox="0 0 794 580" fill="none" xmlns="http://www.w3.org/2000/svg">
<mask id="mask0_11_2" style="mask-type:luminance" maskUnits="userSpaceOnUse" x="115" y="0" width="4" height="519">
<path d="M115.677 0.454285H118.206V518.132H115.677V0.454285Z" fill="white"/>
</mask>
<g mask="url(#mask0_11_2)">
<path d="M116.887 518.181V0.553162" stroke="#77767B" stroke-width="0.6" stroke-miterlimit="10" stroke-linecap="round" stroke-linejoin="round"/>
</g>
<path d="M116.887 518.181V513.118" stroke="#C0BFBC" stroke-miterlimit="10" stroke-linejoin="round"/>
<path d="M117.084 538.591C119.436 538.591 120.898 536.514 120.898 533.093C120.898 529.77 119.495 527.733 117.203 527.733C114.812 527.733 113.35 529.83 113.35 533.231C113.35 536.574 114.772 538.591 117.084 538.591ZM117.183 537.503C115.602 537.503 114.614 535.842 114.614 533.093C114.614 530.423 115.563 528.821 117.104 528.821C118.646 528.821 119.614 530.482 119.614 533.231C119.614 535.901 118.705 537.503 117.183 537.503Z" fill="white"/>
<mask id="mask1_11_2" style="mask-type:luminance" maskUnits="userSpaceOnUse" x="257" y="0" width="3" height="519">
<path d="M257.324 0.454285H259.853V518.132H257.324V0.454285Z" fill="white"/>
</mask>
<g mask="url(#mask1_11_2)">
<path d="M258.751 518.181V0.553162" stroke="#77767B" stroke-width="0.6" stroke-miterlimit="10" stroke-linecap="round" stroke-linejoin="round"/>
</g>
<path d="M258.751 518.181V513.118" stroke="#C0BFBC" stroke-miterlimit="10" stroke-linejoin="round"/>
<path d="M258.02 538.591C260.372 538.591 261.953 537.246 261.953 535.189C261.953 533.212 260.51 531.966 258.158 531.966C257.566 531.966 256.993 532.045 256.459 532.163L256.775 532.559L256.933 528.979H261.439V527.892H255.787L255.53 533.291C256.222 533.132 257.111 533.034 257.763 533.034C259.561 533.034 260.648 533.864 260.648 535.288C260.648 536.653 259.66 537.483 258.099 537.483C257.19 537.483 256.182 537.226 255.412 536.791L255.036 537.8C255.985 538.294 256.973 538.591 258.02 538.591Z" fill="white"/>
<mask id="mask2_11_2" style="mask-type:luminance" maskUnits="userSpaceOnUse" x="400" y="0" width="2" height="519">
<path d="M400.235 0.454285H401.5V518.132H400.235V0.454285Z" fill="white"/>
</mask>
<g mask="url(#mask2_11_2)">
<path d="M400.621 518.181V0.553162" stroke="#77767B" stroke-width="0.6" stroke-miterlimit="10" stroke-linecap="round" stroke-linejoin="round"/>
</g>
<path d="M400.621 518.181V513.118" stroke="#C0BFBC" stroke-miterlimit="10" stroke-linejoin="round"/>
<path d="M396.412 538.512H397.617V527.892H396.886L393.131 529.83L393.586 530.7L396.807 529.177L396.412 528.782V538.512Z" fill="white"/>
<path d="M404.076 538.591C406.428 538.591 407.89 536.514 407.89 533.093C407.89 529.77 406.487 527.733 404.195 527.733C401.804 527.733 400.341 529.83 400.341 533.231C400.341 536.574 401.764 538.591 404.076 538.591ZM404.175 537.503C402.594 537.503 401.606 535.842 401.606 533.093C401.606 530.423 402.555 528.821 404.096 528.821C405.637 528.821 406.606 530.482 406.606 533.231C406.606 535.901 405.697 537.503 404.175 537.503Z" fill="white"/>
<mask id="mask3_11_2" style="mask-type:luminance" maskUnits="userSpaceOnUse" x="541" y="0" width="3" height="519">
<path d="M541.882 0.454285H543.147V518.132H541.882V0.454285Z" fill="white"/>
</mask>
<g mask="url(#mask3_11_2)">
<path d="M542.485 518.181V0.553162" stroke="#77767B" stroke-width="0.6" stroke-miterlimit="10" stroke-linecap="round" stroke-linejoin="round"/>
</g>
<path d="M542.485 518.181V513.118" stroke="#C0BFBC" stroke-miterlimit="10" stroke-linejoin="round"/>
<path d="M538.276 538.512H539.481V527.892H538.75L534.996 529.83L535.45 530.7L538.671 529.177L538.276 528.782V538.512Z" fill="white"/>
<path d="M545.012 538.591C547.363 538.591 548.944 537.246 548.944 535.189C548.944 533.212 547.502 531.966 545.15 531.966C544.557 531.966 543.984 532.045 543.451 532.163L543.767 532.559L543.925 528.979H548.43V527.892H542.779L542.522 533.291C543.213 533.132 544.103 533.034 544.755 533.034C546.553 533.034 547.64 533.864 547.64 535.288C547.64 536.653 546.652 537.483 545.091 537.483C544.182 537.483 543.174 537.226 542.403 536.791L542.028 537.8C542.976 538.294 543.964 538.591 545.012 538.591Z" fill="white"/>
<mask id="mask4_11_2" style="mask-type:luminance" maskUnits="userSpaceOnUse" x="683" y="0" width="2" height="519">
<path d="M683.529 0.454285H684.794V518.132H683.529V0.454285Z" fill="white"/>
</mask>
<g mask="url(#mask4_11_2)">
<path d="M684.354 518.181V0.553162" stroke="#77767B" stroke-width="0.6" stroke-miterlimit="10" stroke-linecap="round" stroke-linejoin="round"/>
</g>
<path d="M684.354 518.181V513.118" stroke="#C0BFBC" stroke-miterlimit="10" stroke-linejoin="round"/>
<path d="M676.826 538.433H683.505V537.345H678.13L678.288 537.701C681.884 534.319 683.11 532.559 683.11 530.72C683.11 528.861 681.845 527.733 679.888 527.733C678.644 527.733 677.438 528.188 676.667 528.94L677.023 529.83C677.814 529.177 678.821 528.841 679.632 528.841C680.995 528.841 681.825 529.652 681.825 530.917C681.825 532.44 680.6 534.042 676.826 537.602V538.433Z" fill="white"/>
<path d="M688.771 538.591C691.123 538.591 692.585 536.514 692.585 533.093C692.585 529.77 691.182 527.733 688.89 527.733C686.499 527.733 685.036 529.83 685.036 533.231C685.036 536.574 686.459 538.591 688.771 538.591ZM688.87 537.503C687.289 537.503 686.301 535.842 686.301 533.093C686.301 530.423 687.249 528.821 688.791 528.821C690.332 528.821 691.301 530.482 691.301 533.231C691.301 535.901 690.391 537.503 688.87 537.503Z" fill="white"/>
<path d="M145.259 518.181V515.65" stroke="#C0BFBC" stroke-width="0.5" stroke-miterlimit="10" stroke-linejoin="round"/>
<path d="M173.631 518.181V515.65" stroke="#C0BFBC" stroke-width="0.5" stroke-miterlimit="10" stroke-linejoin="round"/>
<path d="M202.003 518.181V515.65" stroke="#C0BFBC" stroke-width="0.5" stroke-miterlimit="10" stroke-linejoin="round"/>
<path d="M230.379 518.181V515.65" stroke="#C0BFBC" stroke-width="0.5" stroke-miterlimit="10" stroke-linejoin="round"/>
<path d="M287.123 518.181V515.65" stroke="#C0BFBC" stroke-width="0.5" stroke-miterlimit="10" stroke-linejoin="round"/>
<path d="M315.5 518.181V515.65" stroke="#C0BFBC" stroke-width="0.5" stroke-miterlimit="10" stroke-linejoin="round"/>
<path d="M343.872 518.181V515.65" stroke="#C0BFBC" stroke-width="0.5" stroke-miterlimit="10" stroke-linejoin="round"/>
<path d="M372.244 518.181V515.65" stroke="#C0BFBC" stroke-width="0.5" stroke-miterlimit="10" stroke-linejoin="round"/>
<path d="M428.993 518.181V515.65" stroke="#C0BFBC" stroke-width="0.5" stroke-miterlimit="10" stroke-linejoin="round"/>
<path d="M457.364 518.181V515.65" stroke="#C0BFBC" stroke-width="0.5" stroke-miterlimit="10" stroke-linejoin="round"/>
<path d="M485.741 518.181V515.65" stroke="#C0BFBC" stroke-width="0.5" stroke-miterlimit="10" stroke-linejoin="round"/>
<path d="M514.113 518.181V515.65" stroke="#C0BFBC" stroke-width="0.5" stroke-miterlimit="10" stroke-linejoin="round"/>
<path d="M570.857 518.181V515.65" stroke="#C0BFBC" stroke-width="0.5" stroke-miterlimit="10" stroke-linejoin="round"/>
<path d="M599.234 518.181V515.65" stroke="#C0BFBC" stroke-width="0.5" stroke-miterlimit="10" stroke-linejoin="round"/>
<path d="M627.606 518.181V515.65" stroke="#C0BFBC" stroke-width="0.5" stroke-miterlimit="10" stroke-linejoin="round"/>
<path d="M655.978 518.181V515.65" stroke="#C0BFBC" stroke-width="0.5" stroke-miterlimit="10" stroke-linejoin="round"/>
<path d="M712.726 518.181V515.65" stroke="#C0BFBC" stroke-width="0.5" stroke-miterlimit="10" stroke-linejoin="round"/>
<path d="M741.098 518.181V515.65" stroke="#C0BFBC" stroke-width="0.5" stroke-miterlimit="10" stroke-linejoin="round"/>
<path d="M769.475 518.181V515.65" stroke="#C0BFBC" stroke-width="0.5" stroke-miterlimit="10" stroke-linejoin="round"/>
<mask id="mask5_11_2" style="mask-type:luminance" maskUnits="userSpaceOnUse" x="106" y="452" width="688" height="2">
<path d="M106.823 452.315H793.559V453.58H106.823V452.315Z" fill="white"/>
</mask>
<g mask="url(#mask5_11_2)">
<path d="M106.774 452.71H793.608" stroke="#77767B" stroke-width="0.6" stroke-miterlimit="10" stroke-linecap="round" stroke-linejoin="round"/>
</g>
<path d="M106.774 452.71H111.833" stroke="#C0BFBC" stroke-miterlimit="10" stroke-linejoin="round"/>
<path d="M74.7217 451.998H81.8554V450.871H74.7217V451.998Z" fill="white"/>
<path d="M86.0732 456.586H87.2786V445.966H86.5474L82.7928 447.904L83.2474 448.775L86.4684 447.252L86.0732 446.856V456.586Z" fill="white"/>
<path d="M92.809 456.666C95.1606 456.666 96.7414 455.321 96.7414 453.264C96.7414 451.286 95.2989 450.04 92.9473 450.04C92.3545 450.04 91.7814 450.119 91.2479 450.238L91.564 450.634L91.7221 447.054H96.2276V445.966H90.576L90.3191 451.365C91.0107 451.207 91.9 451.108 92.5521 451.108C94.3503 451.108 95.4372 451.939 95.4372 453.363C95.4372 454.727 94.4492 455.558 92.888 455.558C91.979 455.558 90.9712 455.301 90.2005 454.866L89.8251 455.874C90.7736 456.369 91.7617 456.666 92.809 456.666Z" fill="white"/>
<mask id="mask6_11_2" style="mask-type:luminance" maskUnits="userSpaceOnUse" x="106" y="386" width="688" height="2">
<path d="M106.823 386.497H793.559V387.763H106.823V386.497Z" fill="white"/>
</mask>
<g mask="url(#mask6_11_2)">
<path d="M106.774 387.17H793.608" stroke="#77767B" stroke-width="0.6" stroke-miterlimit="10" stroke-linecap="round" stroke-linejoin="round"/>
</g>
<path d="M106.774 387.17H111.833" stroke="#C0BFBC" stroke-miterlimit="10" stroke-linejoin="round"/>
<path d="M74.7217 386.458H81.8554V385.331H74.7217V386.458Z" fill="white"/>
<path d="M86.0732 391.046H87.2786V380.426H86.5474L82.7928 382.364L83.2474 383.234L86.4684 381.711L86.0732 381.316V391.046Z" fill="white"/>
<path d="M93.7378 391.125C96.0893 391.125 97.5516 389.049 97.5516 385.627C97.5516 382.305 96.1486 380.268 93.8563 380.268C91.4652 380.268 90.0029 382.364 90.0029 385.766C90.0029 389.108 91.4257 391.125 93.7378 391.125ZM93.8366 390.038C92.2557 390.038 91.2676 388.376 91.2676 385.627C91.2676 382.957 92.2162 381.355 93.7575 381.355C95.2989 381.355 96.2672 383.017 96.2672 385.766C96.2672 388.436 95.3582 390.038 93.8366 390.038Z" fill="white"/>
<mask id="mask7_11_2" style="mask-type:luminance" maskUnits="userSpaceOnUse" x="106" y="320" width="688" height="4">
<path d="M106.823 320.68H793.559V323.212H106.823V320.68Z" fill="white"/>
</mask>
<g mask="url(#mask7_11_2)">
<path d="M106.774 321.63H793.608" stroke="#77767B" stroke-width="0.6" stroke-miterlimit="10" stroke-linecap="round" stroke-linejoin="round"/>
</g>
<path d="M106.774 321.63H111.833" stroke="#C0BFBC" stroke-miterlimit="10" stroke-linejoin="round"/>
<path d="M81.0453 320.918H88.179V319.79H81.0453V320.918Z" fill="white"/>
<path d="M92.713 325.585C95.0646 325.585 96.6455 324.24 96.6455 322.183C96.6455 320.206 95.2029 318.96 92.8514 318.96C92.2585 318.96 91.6855 319.039 91.1519 319.157L91.4681 319.553L91.6262 315.973H96.1317V314.886H90.48L90.2232 320.285C90.9148 320.126 91.804 320.028 92.4561 320.028C94.2544 320.028 95.3413 320.858 95.3413 322.282C95.3413 323.647 94.3532 324.477 92.7921 324.477C91.8831 324.477 90.8753 324.22 90.1046 323.785L89.7291 324.794C90.6777 325.288 91.6657 325.585 92.713 325.585Z" fill="white"/>
<mask id="mask8_11_2" style="mask-type:luminance" maskUnits="userSpaceOnUse" x="106" y="254" width="688" height="4">
<path d="M106.823 254.863H793.559V257.394H106.823V254.863Z" fill="white"/>
</mask>
<g mask="url(#mask8_11_2)">
<path d="M106.774 256.094H793.608" stroke="#77767B" stroke-width="0.6" stroke-miterlimit="10" stroke-linecap="round" stroke-linejoin="round"/>
</g>
<path d="M106.774 256.094H111.833" stroke="#C0BFBC" stroke-miterlimit="10" stroke-linejoin="round"/>
<path d="M93.6924 260.05C96.0439 260.05 97.5062 257.973 97.5062 254.552C97.5062 251.229 96.1032 249.192 93.8109 249.192C91.4198 249.192 89.9575 251.288 89.9575 254.69C89.9575 258.032 91.3803 260.05 93.6924 260.05ZM93.7912 258.962C92.2103 258.962 91.2222 257.301 91.2222 254.552C91.2222 251.882 92.1708 250.28 93.7121 250.28C95.2535 250.28 96.2218 251.941 96.2218 254.69C96.2218 257.36 95.3128 258.962 93.7912 258.962Z" fill="white"/>
<mask id="mask9_11_2" style="mask-type:luminance" maskUnits="userSpaceOnUse" x="106" y="189" width="688" height="3">
<path d="M106.823 189.046H793.559V191.577H106.823V189.046Z" fill="white"/>
</mask>
<g mask="url(#mask9_11_2)">
<path d="M106.774 190.554H793.608" stroke="#77767B" stroke-width="0.6" stroke-miterlimit="10" stroke-linecap="round" stroke-linejoin="round"/>
</g>
<path d="M106.774 190.554H111.833" stroke="#C0BFBC" stroke-miterlimit="10" stroke-linejoin="round"/>
<path d="M92.7636 194.509C95.1151 194.509 96.696 193.164 96.696 191.108C96.696 189.13 95.2535 187.884 92.9019 187.884C92.3091 187.884 91.736 187.963 91.2025 188.082L91.5186 188.477L91.6767 184.898H96.1822V183.81H90.5306L90.2737 189.209C90.9653 189.051 91.8546 188.952 92.5067 188.952C94.3049 188.952 95.3918 189.783 95.3918 191.206C95.3918 192.571 94.4037 193.402 92.8426 193.402C91.9336 193.402 90.9258 193.145 90.1551 192.709L89.7797 193.718C90.7282 194.213 91.7162 194.509 92.7636 194.509Z" fill="white"/>
<mask id="mask10_11_2" style="mask-type:luminance" maskUnits="userSpaceOnUse" x="106" y="124" width="688" height="2">
<path d="M106.823 124.494H793.559V125.76H106.823V124.494Z" fill="white"/>
</mask>
<g mask="url(#mask10_11_2)">
<path d="M106.774 125.014H793.608" stroke="#77767B" stroke-width="0.6" stroke-miterlimit="10" stroke-linecap="round" stroke-linejoin="round"/>
</g>
<path d="M106.774 125.014H111.833" stroke="#C0BFBC" stroke-miterlimit="10" stroke-linejoin="round"/>
<path d="M86.1238 128.89H87.3293V118.27H86.5981L82.8435 120.208L83.298 121.078L86.5191 119.555L86.1238 119.16V128.89Z" fill="white"/>
<path d="M93.7884 128.969C96.14 128.969 97.6023 126.892 97.6023 123.471C97.6023 120.148 96.1993 118.111 93.907 118.111C91.5159 118.111 90.0536 120.208 90.0536 123.609C90.0536 126.952 91.4764 128.969 93.7884 128.969ZM93.8872 127.881C92.3063 127.881 91.3183 126.22 91.3183 123.471C91.3183 120.801 92.2668 119.199 93.8082 119.199C95.3495 119.199 96.3178 120.86 96.3178 123.609C96.3178 126.279 95.4088 127.881 93.8872 127.881Z" fill="white"/>
<mask id="mask11_11_2" style="mask-type:luminance" maskUnits="userSpaceOnUse" x="106" y="58" width="688" height="2">
<path d="M106.823 58.6772H793.559V59.9429H106.823V58.6772Z" fill="white"/>
</mask>
<g mask="url(#mask11_11_2)">
<path d="M106.774 59.4732H793.608" stroke="#77767B" stroke-width="0.6" stroke-miterlimit="10" stroke-linecap="round" stroke-linejoin="round"/>
</g>
<path d="M106.774 59.4732H111.833" stroke="#C0BFBC" stroke-miterlimit="10" stroke-linejoin="round"/>
<path d="M86.1238 63.3495H87.3293V52.7293H86.5981L82.8435 54.6674L83.298 55.5376L86.5191 54.0148L86.1238 53.6193V63.3495Z" fill="white"/>
<path d="M92.8596 63.4286C95.2112 63.4286 96.7921 62.0837 96.7921 60.0269C96.7921 58.0493 95.3495 56.8033 92.998 56.8033C92.4051 56.8033 91.8321 56.8824 91.2985 57.0011L91.6147 57.3966L91.7728 53.817H96.2783V52.7293H90.6267L90.3698 58.1284C91.0614 57.9702 91.9506 57.8713 92.6028 57.8713C94.401 57.8713 95.4879 58.7019 95.4879 60.1258C95.4879 61.4904 94.4998 62.3211 92.9387 62.3211C92.0297 62.3211 91.0219 62.064 90.2512 61.6289L89.8757 62.6375C90.8243 63.1319 91.8123 63.4286 92.8596 63.4286Z" fill="white"/>
<path d="M106.774 505.138H109.304" stroke="#C0BFBC" stroke-width="0.5" stroke-miterlimit="10" stroke-linejoin="round"/>
<path d="M106.774 492.031H109.304" stroke="#C0BFBC" stroke-width="0.5" stroke-miterlimit="10" stroke-linejoin="round"/>
<path d="M106.774 478.924H109.304" stroke="#C0BFBC" stroke-width="0.5" stroke-miterlimit="10" stroke-linejoin="round"/>
<path d="M106.774 465.817H109.304" stroke="#C0BFBC" stroke-width="0.5" stroke-miterlimit="10" stroke-linejoin="round"/>
<path d="M106.774 439.603H109.304" stroke="#C0BFBC" stroke-width="0.5" stroke-miterlimit="10" stroke-linejoin="round"/>
<path d="M106.774 426.491H109.304" stroke="#C0BFBC" stroke-width="0.5" stroke-miterlimit="10" stroke-linejoin="round"/>
<path d="M106.774 413.384H109.304" stroke="#C0BFBC" stroke-width="0.5" stroke-miterlimit="10" stroke-linejoin="round"/>
<path d="M106.774 400.277H109.304" stroke="#C0BFBC" stroke-width="0.5" stroke-miterlimit="10" stroke-linejoin="round"/>
<path d="M106.774 374.063H109.304" stroke="#C0BFBC" stroke-width="0.5" stroke-miterlimit="10" stroke-linejoin="round"/>
<path d="M106.774 360.956H109.304" stroke="#C0BFBC" stroke-width="0.5" stroke-miterlimit="10" stroke-linejoin="round"/>
<path d="M106.774 347.849H109.304" stroke="#C0BFBC" stroke-width="0.5" stroke-miterlimit="10" stroke-linejoin="round"/>
<path d="M106.774 334.737H109.304" stroke="#C0BFBC" stroke-width="0.5" stroke-miterlimit="10" stroke-linejoin="round"/>
<path d="M106.774 308.522H109.304" stroke="#C0BFBC" stroke-width="0.5" stroke-miterlimit="10" stroke-linejoin="round"/>
<path d="M106.774 295.415H109.304" stroke="#C0BFBC" stroke-width="0.5" stroke-miterlimit="10" stroke-linejoin="round"/>
<path d="M106.774 282.308H109.304" stroke="#C0BFBC" stroke-width="0.5" stroke-miterlimit="10" stroke-linejoin="round"/>
<path d="M106.774 269.201H109.304" stroke="#C0BFBC" stroke-width="0.5" stroke-miterlimit="10" stroke-linejoin="round"/>
<path d="M106.774 242.982H109.304" stroke="#C0BFBC" stroke-width="0.5" stroke-miterlimit="10" stroke-linejoin="round"/>
<path d="M106.774 229.875H109.304" stroke="#C0BFBC" stroke-width="0.5" stroke-miterlimit="10" stroke-linejoin="round"/>
<path d="M106.774 216.768H109.304" stroke="#C0BFBC" stroke-width="0.5" stroke-miterlimit="10" stroke-linejoin="round"/>
<path d="M106.774 203.661H109.304" stroke="#C0BFBC" stroke-width="0.5" stroke-miterlimit="10" stroke-linejoin="round"/>
<path d="M106.774 177.447H109.304" stroke="#C0BFBC" stroke-width="0.5" stroke-miterlimit="10" stroke-linejoin="round"/>
<path d="M106.774 164.34H109.304" stroke="#C0BFBC" stroke-width="0.5" stroke-miterlimit="10" stroke-linejoin="round"/>
<path d="M106.774 151.228H109.304" stroke="#C0BFBC" stroke-width="0.5" stroke-miterlimit="10" stroke-linejoin="round"/>
<path d="M106.774 138.121H109.304" stroke="#C0BFBC" stroke-width="0.5" stroke-miterlimit="10" stroke-linejoin="round"/>
<path d="M106.774 111.906H109.304" stroke="#C0BFBC" stroke-width="0.5" stroke-miterlimit="10" stroke-linejoin="round"/>
<path d="M106.774 98.7994H109.304" stroke="#C0BFBC" stroke-width="0.5" stroke-miterlimit="10" stroke-linejoin="round"/>
<path d="M106.774 85.6923H109.304" stroke="#C0BFBC" stroke-width="0.5" stroke-miterlimit="10" stroke-linejoin="round"/>
<path d="M106.774 72.5852H109.304" stroke="#C0BFBC" stroke-width="0.5" stroke-miterlimit="10" stroke-linejoin="round"/>
<path d="M106.774 46.3661H109.304" stroke="#C0BFBC" stroke-width="0.5" stroke-miterlimit="10" stroke-linejoin="round"/>
<path d="M106.774 33.259H109.304" stroke="#C0BFBC" stroke-width="0.5" stroke-miterlimit="10" stroke-linejoin="round"/>
<path d="M106.774 20.152H109.304" stroke="#C0BFBC" stroke-width="0.5" stroke-miterlimit="10" stroke-linejoin="round"/>
<path d="M106.774 7.04492H109.304" stroke="#C0BFBC" stroke-width="0.5" stroke-miterlimit="10" stroke-linejoin="round"/>
<path d="M116.887 24.0826L117.85 47.6764L119.752 111.906L125.513 351.779L127.41 419.94L128.378 448.775L129.341 472.368L130.305 486.791L131.243 488.101L132.207 493.342L133.17 494.652L134.138 489.411L136.035 464.507L137.004 442.224L138.93 388.48L140.832 322.94L146.593 115.837L148.495 67.3394L149.458 48.9866L150.421 34.5693L151.385 28.0182H152.323L153.287 31.9489L154.255 42.4355L155.218 58.163L157.12 104.04L158.084 130.259L160.01 194.485L165.746 401.587L166.709 413.384L167.673 434.357L168.611 448.775L169.575 460.571L170.538 465.817L171.501 467.127L172.44 463.197L173.403 454.02L174.372 440.913L175.335 423.871L176.298 404.213L178.2 350.469L182.029 222.014L183.961 159.094L185.863 105.35L187.789 68.6497L188.753 55.5426L189.691 46.3662L190.655 42.4355L191.618 45.0559L192.586 52.9222L193.52 64.719L195.452 104.04L197.354 153.853L200.244 248.228L201.182 283.619L204.077 371.442L205.041 397.657L206.943 433.047L207.906 444.844L208.869 443.534L209.808 446.154L210.771 442.224L211.735 435.668L212.703 423.871L214.605 392.411L215.568 370.132L218.434 288.859L223.226 145.987L225.158 102.73L226.096 87.0025L227.06 73.8955L228.023 63.4088L228.986 56.8528L229.925 55.5426L230.888 62.0986L232.82 89.623L233.783 109.286L235.685 157.784L237.612 212.837L241.446 326.875L242.379 353.089L244.311 392.411L245.274 405.523L246.238 416.009L247.176 419.94L248.14 421.25L249.103 419.94L250.071 413.384L251.005 404.213L251.968 391.101L252.937 374.063L253.9 354.4L254.839 332.116L255.802 325.565L260.594 190.554L262.526 144.677L263.459 125.014L264.428 109.286L265.391 96.179L266.354 87.0025L267.293 83.0669L268.256 84.3821L269.22 88.3127L270.188 97.4892L271.122 110.596L272.085 127.634L274.98 193.174L276.882 246.918L279.747 324.255L281.679 366.197L282.642 383.239L283.576 396.346L284.544 404.213L285.508 408.143L286.471 410.764L287.41 408.143L288.373 402.897L289.336 395.036L290.305 383.239L291.268 368.817L293.17 329.496L295.097 283.619L297.962 210.217L300.827 152.543L302.759 119.773L303.722 107.976L304.661 100.11L305.624 97.4892H306.588L307.556 101.42L308.49 109.286L310.421 134.19L311.385 151.228L314.25 216.768L318.079 313.768L319.047 339.982L320.944 374.063L321.912 387.17L322.876 396.346L323.839 402.897L324.778 405.523L325.741 404.213L326.705 398.967L327.673 388.48L329.57 360.956L332.465 303.282L335.33 233.811L338.196 169.581L340.127 132.88L341.061 118.462L342.029 136.81L342.993 130.259L343.956 125.014L344.895 122.393L345.858 125.014L346.821 132.88L347.79 142.056L348.753 155.163L350.655 189.244L352.582 229.875L354.484 275.752L357.349 337.362L358.312 355.71L359.281 370.132L361.207 392.411L362.146 397.657L363.109 400.277L364.073 398.967L365.041 395.036L366.938 375.373L368.87 343.913L371.735 284.929L373.637 239.052L375.564 197.105L378.429 143.366L380.361 118.462L381.324 111.906L382.263 107.976L383.226 106.666L384.189 109.286L385.158 117.147L386.091 143.366L387.055 155.163L388.023 169.581L389.92 206.281L391.852 249.538L393.778 290.175L394.717 311.143L396.649 347.849L397.612 362.266L398.546 374.063L399.514 381.929L400.477 388.48L401.441 391.101L402.379 388.48L403.343 384.549L404.306 376.683L405.274 366.197L407.171 339.982L410.066 284.929L411.968 244.297L415.797 173.511L416.765 159.094L417.729 147.297L418.662 138.121L419.631 132.88L420.594 130.259H421.557L422.521 132.88L423.459 139.431L424.423 148.607L426.354 176.137L427.288 190.554L428.256 207.592L434.012 322.94L435.914 351.779L436.882 362.266L437.845 370.132L438.809 375.373L439.747 377.993H440.711L441.674 374.063L442.638 367.507L443.576 358.335L444.54 346.533L446.471 316.389L450.3 244.297L453.165 190.554L455.097 165.65L456.031 153.853L456.999 145.987L457.962 140.741L458.926 138.121H459.864L460.828 140.741L461.791 147.297L462.754 155.163L464.656 180.067L468.49 248.228L470.417 284.929L472.319 319.009L473.282 333.426L475.214 355.71L476.147 363.576L477.116 367.507L478.079 370.132H479.042L480.006 366.197L480.944 360.956L482.871 341.293L484.773 315.078L486.705 282.308L491.497 199.73L493.399 174.821L494.362 165.65L495.33 159.094L496.294 155.163H498.196L499.159 159.094L500.122 164.34L502.024 183.998L502.988 195.795L504.89 225.944L510.65 326.875L511.613 341.293L513.515 364.886L514.479 371.442L515.447 376.683L516.41 379.304H517.349L518.312 376.683L519.276 371.442L521.207 351.779L522.141 339.982L524.073 311.143L527.901 245.608L529.803 215.458L531.73 191.864L532.698 183.998L533.632 156.473L534.595 153.853L535.564 152.543L536.527 153.853L537.49 157.784L538.429 163.025L540.356 181.377L543.221 222.014L548.982 313.768L550.884 336.052L551.847 345.223L553.779 355.71L554.712 357.02H555.681L556.644 354.4L557.607 347.849L559.509 330.806L561.441 305.902L567.172 218.078L569.098 193.174L570.067 182.688L571 174.821L571.964 169.581L572.932 165.65H574.829L575.797 169.581L576.761 174.821L577.724 182.688L578.692 193.174L582.521 248.228L584.423 280.998L586.35 311.143L588.252 337.362L589.215 349.159L590.183 358.335L591.147 364.886L592.08 368.817L593.049 371.442L594.012 370.132L594.975 366.197L595.914 360.956L596.877 353.089L598.809 332.116L599.743 320.319L605.503 235.121L607.435 212.837L608.368 202.351L609.332 194.485L610.3 189.244L611.263 185.308L612.197 183.998L613.165 185.308L614.129 187.933L615.092 193.174L616.031 199.73L617.957 219.388L619.859 244.297L623.718 300.656L625.62 325.565L626.583 337.362L628.485 354.4L629.448 360.956L630.417 363.576H631.38L632.314 362.266L633.282 359.646L635.209 346.533L637.111 328.186L641.908 261.335L642.871 246.918L645.736 212.837L647.668 197.105L648.631 191.864L649.565 189.244L650.533 187.933H651.497L652.46 190.554L653.399 195.795L654.362 202.351L655.325 210.217L659.159 258.715L663.951 322.94L665.853 342.603L666.817 349.159L667.785 354.4L668.748 357.02L669.682 358.335L671.614 353.089L672.577 347.849L674.479 330.806L676.411 309.833L677.344 298.036L678.308 283.619L680.239 258.715L683.105 220.699L685.031 203.661L685.97 197.105L686.933 191.864L687.902 189.244L688.865 187.933H689.799L690.767 190.554L691.73 195.795L692.694 202.351L693.657 210.217L696.527 242.982L700.356 294.105L701.319 305.902L704.185 333.426L705.148 339.982L706.116 343.913L707.05 346.533L708.018 347.849L709.945 342.603L710.884 337.362L712.81 321.63L713.774 312.458L719.509 240.362L722.399 210.217L723.338 202.351L724.301 195.795L725.265 191.864L726.233 189.244L727.167 187.933L728.135 189.244L729.098 191.864L730.062 197.105L731 203.661L731.964 211.527L733.89 231.185L735.792 253.469L737.724 278.378L738.687 288.859L739.626 300.656L742.516 326.875L743.455 332.116L744.418 336.052L745.381 338.672L746.35 339.982L747.283 338.672L748.252 334.737L749.215 329.496L750.178 322.94L751.142 315.078L753.044 296.726L757.841 239.052L759.743 218.078L761.669 202.351L762.633 197.105L763.601 193.174L764.535 190.554H765.498L766.466 191.864L767.43 194.485L768.368 199.73L770.295 212.837L771.259 222.014L775.092 265.266L776.994 287.549L777.958 299.346L778.921 307.212L779.884 316.389L780.823 322.94L781.786 328.186L782.75 332.116L783.718 334.737" stroke="#89BEFF" stroke-width="3" stroke-miterlimit="10" stroke-linecap="round" stroke-linejoin="round"/>
<path d="M106.774 518.181V0.553162" stroke="#C0BFBC" stroke-width="0.8" stroke-miterlimit="10" stroke-linecap="square"/>
<path d="M106.774 518.181H793.608" stroke="#C0BFBC" stroke-width="0.8" stroke-miterlimit="10" stroke-linecap="square"/>
<path d="M682.566 35.4889H782.987C785.007 35.4889 786.02 34.4753 786.02 32.4531V11.1881C786.02 9.16102 785.007 8.14746 782.987 8.14746H682.566C680.545 8.14746 679.533 9.16102 679.533 11.1881V32.4531C679.533 34.4753 680.545 35.4889 682.566 35.4889Z" fill="#242424" fill-opacity="0.8" stroke="#CCCCCC" stroke-opacity="0.8" stroke-miterlimit="10"/>
<path d="M685.604 20.3003H715.957" stroke="#1A5FB4" stroke-width="3" stroke-miterlimit="10" stroke-linecap="round" stroke-linejoin="round"/>
<path d="M744.602 20.7543L742.678 21.0952C742.597 20.849 742.469 20.6146 742.294 20.392C742.124 20.1695 741.892 19.9872 741.598 19.8452C741.304 19.7031 740.938 19.6321 740.497 19.6321C739.896 19.6321 739.394 19.767 738.991 20.0369C738.589 20.3021 738.388 20.6454 738.388 21.0668C738.388 21.4313 738.523 21.7249 738.793 21.9474C739.063 22.17 739.498 22.3523 740.099 22.4943L741.832 22.892C742.836 23.1241 743.584 23.4815 744.077 23.9645C744.569 24.4474 744.815 25.0748 744.815 25.8466C744.815 26.5 744.626 27.0824 744.247 27.5938C743.873 28.1004 743.35 28.4981 742.678 28.7869C742.01 29.0758 741.236 29.2202 740.355 29.2202C739.134 29.2202 738.137 28.9598 737.365 28.4389C736.593 27.9134 736.12 27.1676 735.945 26.2017L737.997 25.8892C738.125 26.4242 738.388 26.8291 738.786 27.1037C739.183 27.3736 739.702 27.5085 740.341 27.5085C741.037 27.5085 741.593 27.3641 742.01 27.0753C742.427 26.7817 742.635 26.4242 742.635 26.0028C742.635 25.6619 742.507 25.3755 742.251 25.1435C742 24.9115 741.615 24.7363 741.094 24.6179L739.247 24.2131C738.229 23.9811 737.476 23.6117 736.989 23.1051C736.506 22.5985 736.264 21.9569 736.264 21.1804C736.264 20.5365 736.444 19.973 736.804 19.4901C737.164 19.0071 737.661 18.6307 738.295 18.3608C738.93 18.0862 739.657 17.9489 740.476 17.9489C741.655 17.9489 742.583 18.2045 743.26 18.7159C743.937 19.2225 744.384 19.902 744.602 20.7543ZM747.768 22.9631C747.768 21.1828 748.002 19.5445 748.471 18.0483C748.94 16.5521 749.624 15.1719 750.524 13.9077H752.47C752.119 14.3764 751.793 14.9517 751.49 15.6335C751.187 16.3153 750.922 17.0634 750.694 17.8778C750.467 18.6875 750.289 19.5279 750.162 20.3991C750.034 21.2656 749.97 22.1203 749.97 22.9631C749.97 24.09 750.081 25.2311 750.304 26.3864C750.526 27.5417 750.827 28.6141 751.206 29.6037C751.584 30.5933 752.006 31.4006 752.47 32.0256H750.524C749.624 30.7614 748.94 29.3812 748.471 27.8849C748.002 26.3887 747.768 24.7481 747.768 22.9631ZM759.801 18.0909V19.7955H753.842V18.0909H759.801ZM755.44 15.4773H757.564V25.7969C757.564 26.2088 757.625 26.5189 757.749 26.7273C757.872 26.9309 758.03 27.0705 758.224 27.1463C758.423 27.2173 758.639 27.2528 758.871 27.2528C759.041 27.2528 759.19 27.241 759.318 27.2173C759.446 27.1937 759.545 27.1747 759.616 27.1605L760 28.9148C759.877 28.9621 759.702 29.0095 759.474 29.0568C759.247 29.1089 758.963 29.1373 758.622 29.142C758.063 29.1515 757.543 29.0521 757.06 28.8438C756.577 28.6354 756.186 28.3134 755.888 27.8778C755.589 27.4422 755.44 26.8954 755.44 26.2372V15.4773ZM766.234 22.9631C766.234 24.7481 766 26.3887 765.531 27.8849C765.062 29.3812 764.378 30.7614 763.478 32.0256H761.532C761.883 31.5568 762.209 30.9815 762.512 30.2997C762.815 29.6179 763.081 28.8722 763.308 28.0625C763.535 27.2481 763.713 26.4053 763.841 25.5341C763.968 24.6629 764.032 23.8059 764.032 22.9631C764.032 21.8409 763.921 20.7022 763.699 19.5469C763.476 18.3916 763.175 17.3191 762.797 16.3295C762.418 15.34 761.996 14.5327 761.532 13.9077H763.478C764.378 15.1719 765.062 16.5521 765.531 18.0483C766 19.5445 766.234 21.1828 766.234 22.9631Z" fill="white"/>
<path d="M415.881 562.344V560.455H427.138V562.344H422.599V575H420.412V562.344H415.881ZM432.575 575.22C431.5 575.22 430.574 574.991 429.798 574.531C429.026 574.067 428.429 573.416 428.008 572.578C427.591 571.735 427.383 570.748 427.383 569.616C427.383 568.499 427.591 567.514 428.008 566.662C428.429 565.81 429.016 565.144 429.769 564.666C430.527 564.188 431.412 563.949 432.425 563.949C433.041 563.949 433.638 564.051 434.215 564.254C434.793 564.458 435.311 564.777 435.771 565.213C436.23 565.649 436.592 566.214 436.857 566.911C437.122 567.602 437.255 568.442 437.255 569.432V570.185H428.583V568.594H435.174C435.174 568.035 435.06 567.54 434.833 567.109C434.606 566.674 434.286 566.33 433.874 566.08C433.467 565.829 432.989 565.703 432.44 565.703C431.843 565.703 431.322 565.85 430.877 566.143C430.437 566.432 430.096 566.811 429.854 567.28C429.618 567.744 429.499 568.248 429.499 568.793V570.036C429.499 570.765 429.627 571.385 429.883 571.896C430.143 572.408 430.505 572.798 430.969 573.068C431.433 573.333 431.976 573.466 432.596 573.466C432.998 573.466 433.365 573.409 433.697 573.295C434.028 573.177 434.315 573.002 434.556 572.77C434.798 572.538 434.982 572.251 435.11 571.911L437.12 572.273C436.959 572.865 436.67 573.383 436.254 573.828C435.842 574.268 435.323 574.612 434.698 574.858C434.078 575.099 433.37 575.22 432.575 575.22ZM439.611 575V564.091H441.65V565.866H441.784C442.012 565.265 442.383 564.796 442.9 564.46C443.416 564.119 444.033 563.949 444.753 563.949C445.482 563.949 446.093 564.119 446.586 564.46C447.083 564.801 447.45 565.27 447.686 565.866H447.8C448.06 565.284 448.475 564.82 449.043 564.474C449.611 564.124 450.288 563.949 451.074 563.949C452.064 563.949 452.871 564.259 453.496 564.879C454.126 565.5 454.441 566.435 454.441 567.685V575H452.317V567.884C452.317 567.145 452.116 566.61 451.713 566.278C451.311 565.947 450.83 565.781 450.272 565.781C449.58 565.781 449.043 565.994 448.659 566.42C448.276 566.842 448.084 567.384 448.084 568.047V575H445.968V567.749C445.968 567.157 445.783 566.681 445.414 566.321C445.044 565.961 444.564 565.781 443.972 565.781C443.569 565.781 443.198 565.888 442.857 566.101C442.521 566.309 442.248 566.6 442.04 566.974C441.837 567.348 441.735 567.782 441.735 568.274V575H439.611ZM457.287 579.091V564.091H459.361V565.859H459.538C459.661 565.632 459.839 565.369 460.071 565.071C460.303 564.773 460.625 564.512 461.037 564.29C461.449 564.062 461.993 563.949 462.67 563.949C463.551 563.949 464.337 564.171 465.028 564.616C465.72 565.062 466.262 565.703 466.655 566.541C467.053 567.379 467.251 568.388 467.251 569.567C467.251 570.746 467.055 571.757 466.662 572.599C466.269 573.437 465.729 574.084 465.043 574.538C464.356 574.988 463.572 575.213 462.692 575.213C462.029 575.213 461.487 575.102 461.065 574.879C460.649 574.657 460.322 574.396 460.085 574.098C459.848 573.8 459.666 573.535 459.538 573.303H459.411V579.091H457.287ZM459.368 569.545C459.368 570.312 459.479 570.985 459.702 571.562C459.924 572.14 460.246 572.592 460.668 572.919C461.089 573.241 461.605 573.402 462.216 573.402C462.85 573.402 463.381 573.234 463.807 572.898C464.233 572.557 464.555 572.095 464.773 571.513C464.995 570.93 465.107 570.275 465.107 569.545C465.107 568.826 464.998 568.179 464.78 567.607C464.567 567.034 464.245 566.581 463.814 566.25C463.388 565.919 462.855 565.753 462.216 565.753C461.6 565.753 461.08 565.911 460.653 566.229C460.232 566.546 459.912 566.989 459.695 567.557C459.477 568.125 459.368 568.788 459.368 569.545ZM477.805 566.754L475.881 567.095C475.8 566.849 475.672 566.615 475.497 566.392C475.327 566.17 475.095 565.987 474.801 565.845C474.508 565.703 474.141 565.632 473.7 565.632C473.099 565.632 472.597 565.767 472.195 566.037C471.792 566.302 471.591 566.645 471.591 567.067C471.591 567.431 471.726 567.725 471.996 567.947C472.266 568.17 472.701 568.352 473.303 568.494L475.036 568.892C476.039 569.124 476.787 569.482 477.28 569.964C477.772 570.447 478.018 571.075 478.018 571.847C478.018 572.5 477.829 573.082 477.45 573.594C477.076 574.1 476.553 574.498 475.881 574.787C475.213 575.076 474.439 575.22 473.558 575.22C472.337 575.22 471.34 574.96 470.568 574.439C469.796 573.913 469.323 573.168 469.148 572.202L471.2 571.889C471.328 572.424 471.591 572.829 471.989 573.104C472.386 573.374 472.905 573.509 473.544 573.509C474.24 573.509 474.796 573.364 475.213 573.075C475.63 572.782 475.838 572.424 475.838 572.003C475.838 571.662 475.71 571.375 475.455 571.143C475.204 570.911 474.818 570.736 474.297 570.618L472.45 570.213C471.432 569.981 470.679 569.612 470.192 569.105C469.709 568.598 469.467 567.957 469.467 567.18C469.467 566.536 469.647 565.973 470.007 565.49C470.367 565.007 470.864 564.631 471.499 564.361C472.133 564.086 472.86 563.949 473.679 563.949C474.858 563.949 475.786 564.205 476.463 564.716C477.14 565.223 477.588 565.902 477.805 566.754ZM486.264 568.963C486.264 567.183 486.499 565.545 486.967 564.048C487.436 562.552 488.12 561.172 489.02 559.908H490.966C490.616 560.376 490.289 560.952 489.986 561.634C489.683 562.315 489.418 563.063 489.19 563.878C488.963 564.687 488.786 565.528 488.658 566.399C488.53 567.266 488.466 568.12 488.466 568.963C488.466 570.09 488.577 571.231 488.8 572.386C489.022 573.542 489.323 574.614 489.702 575.604C490.08 576.593 490.502 577.401 490.966 578.026H489.02C488.12 576.761 487.436 575.381 486.967 573.885C486.499 572.389 486.264 570.748 486.264 568.963ZM501.38 566.754L499.455 567.095C499.374 566.849 499.247 566.615 499.071 566.392C498.901 566.17 498.669 565.987 498.375 565.845C498.082 565.703 497.715 565.632 497.275 565.632C496.673 565.632 496.171 565.767 495.769 566.037C495.366 566.302 495.165 566.645 495.165 567.067C495.165 567.431 495.3 567.725 495.57 567.947C495.84 568.17 496.275 568.352 496.877 568.494L498.61 568.892C499.614 569.124 500.362 569.482 500.854 569.964C501.346 570.447 501.593 571.075 501.593 571.847C501.593 572.5 501.403 573.082 501.025 573.594C500.65 574.1 500.127 574.498 499.455 574.787C498.787 575.076 498.013 575.22 497.132 575.22C495.911 575.22 494.914 574.96 494.142 574.439C493.371 573.913 492.897 573.168 492.722 572.202L494.775 571.889C494.902 572.424 495.165 572.829 495.563 573.104C495.961 573.374 496.479 573.509 497.118 573.509C497.814 573.509 498.371 573.364 498.787 573.075C499.204 572.782 499.412 572.424 499.412 572.003C499.412 571.662 499.284 571.375 499.029 571.143C498.778 570.911 498.392 570.736 497.871 570.618L496.025 570.213C495.007 569.981 494.254 569.612 493.766 569.105C493.283 568.598 493.042 567.957 493.042 567.18C493.042 566.536 493.221 565.973 493.581 565.49C493.941 565.007 494.438 564.631 495.073 564.361C495.707 564.086 496.434 563.949 497.253 563.949C498.432 563.949 499.36 564.205 500.037 564.716C500.714 565.223 501.162 565.902 501.38 566.754ZM508.011 568.963C508.011 570.748 507.777 572.389 507.308 573.885C506.839 575.381 506.155 576.761 505.256 578.026H503.31C503.66 577.557 503.987 576.982 504.29 576.3C504.593 575.618 504.858 574.872 505.085 574.062C505.313 573.248 505.49 572.405 505.618 571.534C505.746 570.663 505.81 569.806 505.81 568.963C505.81 567.841 505.698 566.702 505.476 565.547C505.253 564.392 504.953 563.319 504.574 562.33C504.195 561.34 503.774 560.533 503.31 559.908H505.256C506.155 561.172 506.839 562.552 507.308 564.048C507.777 565.545 508.011 567.183 508.011 568.963Z" fill="white"/>
<path d="M9.35369 253.953V255.757H2.31534V253.953H9.35369ZM10.4545 253.804V255.793C10.4545 257.256 10.2604 258.461 9.87216 259.408C9.48864 260.355 8.94886 261.058 8.25284 261.517C7.55682 261.972 6.74242 262.199 5.80966 262.199C4.87689 262.199 4.05777 261.972 3.35227 261.517C2.64678 261.058 2.09754 260.355 1.70455 259.408C1.31155 258.461 1.11506 257.256 1.11506 255.793V253.804C1.11506 252.355 1.30919 251.164 1.69744 250.232C2.0857 249.299 2.63021 248.607 3.33097 248.158C4.03172 247.708 4.84848 247.483 5.78125 247.483C6.72348 247.483 7.54261 247.708 8.23864 248.158C8.93939 248.607 9.4839 249.299 9.87216 250.232C10.2604 251.164 10.4545 252.355 10.4545 253.804ZM8.33807 256.134V253.456C8.33807 252.537 8.23153 251.77 8.01847 251.155C7.8054 250.535 7.5071 250.071 7.12358 249.763C6.74006 249.45 6.29261 249.294 5.78125 249.294C5.0142 249.294 4.39394 249.649 3.92045 250.359C3.44697 251.07 3.21023 252.102 3.21023 253.456V256.134C3.21023 257.497 3.44934 258.546 3.92756 259.28C4.41051 260.014 5.03788 260.381 5.80966 260.381C6.32102 260.381 6.76373 260.22 7.13778 259.898C7.51657 259.576 7.81013 259.1 8.01847 258.47C8.23153 257.836 8.33807 257.057 8.33807 256.134ZM18.9009 255.963C18.9009 254.183 19.1353 252.545 19.604 251.048C20.0728 249.552 20.757 248.172 21.6566 246.908H23.6026C23.2522 247.376 22.9255 247.952 22.6225 248.634C22.3195 249.315 22.0543 250.063 21.8271 250.878C21.5998 251.687 21.4222 252.528 21.2944 253.399C21.1665 254.266 21.1026 255.12 21.1026 255.963C21.1026 257.09 21.2139 258.231 21.4364 259.386C21.659 260.542 21.9596 261.614 22.3384 262.604C22.7172 263.593 23.1386 264.401 23.6026 265.026H21.6566C20.757 263.761 20.0728 262.381 19.604 260.885C19.1353 259.389 18.9009 257.748 18.9009 255.963ZM29.9254 262.213C29.0447 262.213 28.2588 261.988 27.5675 261.538C26.8809 261.084 26.3411 260.437 25.9482 259.599C25.5599 258.757 25.3658 257.746 25.3658 256.567C25.3658 255.388 25.5623 254.379 25.9553 253.541C26.353 252.703 26.8975 252.062 27.5888 251.616C28.2801 251.171 29.0637 250.949 29.9396 250.949C30.6167 250.949 31.1612 251.062 31.5732 251.29C31.9898 251.512 32.3118 251.773 32.5391 252.071C32.7711 252.369 32.951 252.632 33.0788 252.859H33.2067V247.455H35.3303V262H33.2564V260.303H33.0788C32.951 260.535 32.7663 260.8 32.5249 261.098C32.2881 261.396 31.9614 261.657 31.5447 261.879C31.1281 262.102 30.5883 262.213 29.9254 262.213ZM30.3942 260.402C31.005 260.402 31.5211 260.241 31.9425 259.919C32.3686 259.592 32.6906 259.14 32.9084 258.562C33.1309 257.985 33.2422 257.312 33.2422 256.545C33.2422 255.788 33.1333 255.125 32.9155 254.557C32.6977 253.989 32.3781 253.546 31.9567 253.229C31.5353 252.911 31.0144 252.753 30.3942 252.753C29.755 252.753 29.2223 252.919 28.7962 253.25C28.37 253.581 28.0481 254.034 27.8303 254.607C27.6172 255.179 27.5107 255.826 27.5107 256.545C27.5107 257.275 27.6196 257.93 27.8374 258.513C28.0552 259.095 28.3771 259.557 28.8033 259.898C29.2341 260.234 29.7644 260.402 30.3942 260.402ZM43.0629 262.22C41.988 262.22 41.0624 261.991 40.2859 261.531C39.5141 261.067 38.9175 260.416 38.4961 259.578C38.0794 258.735 37.8711 257.748 37.8711 256.616C37.8711 255.499 38.0794 254.514 38.4961 253.662C38.9175 252.81 39.5046 252.144 40.2575 251.666C41.015 251.188 41.9004 250.949 42.9137 250.949C43.5292 250.949 44.1258 251.051 44.7035 251.254C45.2811 251.458 45.7996 251.777 46.2589 252.213C46.7182 252.649 47.0804 253.214 47.3455 253.911C47.6107 254.602 47.7433 255.442 47.7433 256.432V257.185H39.0714V255.594H45.6623C45.6623 255.035 45.5487 254.54 45.3214 254.109C45.0941 253.674 44.7745 253.33 44.3626 253.08C43.9554 252.829 43.4772 252.703 42.9279 252.703C42.3313 252.703 41.8105 252.85 41.3654 253.143C40.9251 253.432 40.5842 253.811 40.3427 254.28C40.1059 254.744 39.9876 255.248 39.9876 255.793V257.036C39.9876 257.765 40.1154 258.385 40.3711 258.896C40.6315 259.408 40.9937 259.798 41.4577 260.068C41.9218 260.333 42.4639 260.466 43.0842 260.466C43.4866 260.466 43.8536 260.409 44.185 260.295C44.5165 260.177 44.8029 260.002 45.0444 259.77C45.2859 259.538 45.4705 259.251 45.5984 258.911L47.6083 259.273C47.4473 259.865 47.1585 260.383 46.7418 260.828C46.3299 261.268 45.8114 261.612 45.1864 261.858C44.5662 262.099 43.8583 262.22 43.0629 262.22ZM54.6733 266.318C53.8068 266.318 53.0611 266.205 52.4361 265.977C51.8158 265.75 51.3092 265.449 50.9162 265.075C50.5232 264.701 50.2296 264.292 50.0355 263.847L51.8608 263.094C51.9886 263.302 52.1591 263.522 52.3722 263.754C52.59 263.991 52.8835 264.192 53.2528 264.358C53.6269 264.524 54.1075 264.607 54.6946 264.607C55.4995 264.607 56.1648 264.41 56.6903 264.017C57.2159 263.629 57.4787 263.009 57.4787 262.156V260.011H57.3438C57.2159 260.243 57.0313 260.501 56.7898 260.786C56.553 261.07 56.2263 261.316 55.8097 261.524C55.393 261.732 54.8509 261.837 54.1832 261.837C53.3215 261.837 52.545 261.635 51.8537 261.233C51.1671 260.826 50.6226 260.227 50.2202 259.436C49.8224 258.641 49.6236 257.663 49.6236 256.503C49.6236 255.343 49.8201 254.348 50.2131 253.52C50.6108 252.691 51.1553 252.057 51.8466 251.616C52.5379 251.171 53.3215 250.949 54.1974 250.949C54.8745 250.949 55.4214 251.062 55.8381 251.29C56.2547 251.512 56.5791 251.773 56.8111 252.071C57.0478 252.369 57.2301 252.632 57.358 252.859H57.5142V251.091H59.5952V262.241C59.5952 263.179 59.3774 263.948 58.9418 264.55C58.5062 265.151 57.9167 265.596 57.1733 265.885C56.4347 266.174 55.6013 266.318 54.6733 266.318ZM54.652 260.075C55.2628 260.075 55.7789 259.933 56.2003 259.649C56.6264 259.36 56.9484 258.948 57.1662 258.413C57.3887 257.874 57.5 257.227 57.5 256.474C57.5 255.741 57.3911 255.094 57.1733 254.536C56.9555 253.977 56.6359 253.541 56.2145 253.229C55.7931 252.911 55.2723 252.753 54.652 252.753C54.0128 252.753 53.4801 252.919 53.054 253.25C52.6278 253.577 52.3059 254.022 52.0881 254.585C51.875 255.149 51.7685 255.778 51.7685 256.474C51.7685 257.189 51.8774 257.817 52.0952 258.357C52.313 258.896 52.6349 259.318 53.0611 259.621C53.492 259.924 54.0223 260.075 54.652 260.075ZM66.527 255.963C66.527 257.748 66.2926 259.389 65.8239 260.885C65.3551 262.381 64.6709 263.761 63.7713 265.026H61.8253C62.1757 264.557 62.5024 263.982 62.8054 263.3C63.1084 262.618 63.3736 261.872 63.6009 261.062C63.8281 260.248 64.0057 259.405 64.1335 258.534C64.2614 257.663 64.3253 256.806 64.3253 255.963C64.3253 254.841 64.214 253.702 63.9915 252.547C63.7689 251.392 63.4683 250.319 63.0895 249.33C62.7107 248.34 62.2893 247.533 61.8253 246.908H63.7713C64.6709 248.172 65.3551 249.552 65.8239 251.048C66.2926 252.545 66.527 254.183 66.527 255.963Z" fill="white"/>
</svg>

